<svg width="50" height="51" viewBox="0 0 50 51" fill="none" xmlns="http://www.w3.org/2000/svg">
<path fill-rule="evenodd" clip-rule="evenodd" d="M25 50.6493C38.8071 50.6493 50 39.3111 50 25.3247C50 11.3382 38.8071 0 25 0C11.1929 0 0 11.3382 0 25.3247C0 39.3111 11.1929 50.6493 25 50.6493ZM43.8919 22.0779C42.3681 12.816 34.4341 5.84415 25 5.84415C14.4914 5.84415 5.84416 14.4946 5.84416 25.3247C5.84416 36.1548 14.4914 44.8052 25 44.8052C34.6534 44.8052 42.736 37.5055 43.9877 27.9221H40.7796C39.7784 35.8467 33.0953 41.9717 25 41.9717C16.2137 41.9717 9.09091 34.7564 9.09091 25.856C9.09091 16.9555 16.2137 9.74026 25 9.74026C32.5019 9.74026 38.791 15.0002 40.4695 22.0779H43.8919ZM25 36.1275C30.4878 36.1275 35.0649 31.6001 35.0649 25.856C35.0649 20.1118 30.4878 15.5844 25 15.5844C19.5122 15.5844 14.9351 20.1118 14.9351 25.856C14.9351 31.6001 19.5122 36.1275 25 36.1275Z" fill="#00866D"/>
</svg>
