<svg width="244" height="30" viewBox="0 0 244 30" fill="none" xmlns="http://www.w3.org/2000/svg">
<path d="M9.17685 29.9991L0.710938 0.908203H8.48082L12.87 19.9707H13.1115L18.1257 0.908203H24.4609L29.4751 20.0133H29.7166L34.12 0.908203H41.8757L33.424 29.9991H26.6484L21.407 12.3571H21.1797L15.9382 29.9991H9.17685Z" fill="#461BC2"/>
<path d="M46.3805 29.9991V0.908203H66.6646V6.61843H53.4118V12.5843H65.6277V18.3088H53.4118V24.2889H66.6646V29.9991H46.3805Z" fill="#6A1D1D"/>
<path d="M78.9606 29.9991H71.4038L81.2192 0.908203H90.58L100.395 29.9991H92.8385L86.0061 8.23775H85.7788L78.9606 29.9991ZM77.9521 18.5502H93.7476V23.8912H77.9521V18.5502Z" fill="#6A1D1D"/>
<path d="M105.127 29.9991V0.908203H117.144C119.322 0.908203 121.202 1.3012 122.784 2.08718C124.375 2.8637 125.601 3.98112 126.463 5.43945C127.324 6.88832 127.755 8.60707 127.755 10.5957C127.755 12.6127 127.315 14.3268 126.434 15.7377C125.554 17.1393 124.304 18.2093 122.684 18.948C121.065 19.6771 119.147 20.0417 116.931 20.0417H109.332V14.502H115.625C116.685 14.502 117.571 14.3646 118.281 14.09C119.001 13.8059 119.545 13.3798 119.914 12.8116C120.284 12.234 120.468 11.4953 120.468 10.5957C120.468 9.69608 120.284 8.95271 119.914 8.36559C119.545 7.769 119.001 7.32392 118.281 7.03036C117.561 6.72733 116.676 6.57582 115.625 6.57582H112.159V29.9991H105.127ZM121.505 16.7037L128.75 29.9991H121.079L113.977 16.7037H121.505Z" fill="#6A1D1D"/>
<path d="M133.212 29.9991V0.908203H145.342C147.52 0.908203 149.343 1.21597 150.811 1.8315C152.288 2.44703 153.396 3.30877 154.135 4.41673C154.883 5.52468 155.257 6.80782 155.257 8.26616C155.257 9.37411 155.025 10.3637 154.561 11.2349C154.097 12.0967 153.458 12.8116 152.644 13.3798C151.829 13.948 150.887 14.3457 149.817 14.573V14.8571C150.991 14.9139 152.075 15.2311 153.07 15.8088C154.074 16.3864 154.878 17.1913 155.485 18.2235C156.091 19.2463 156.394 20.4584 156.394 21.8599C156.394 23.4224 155.996 24.8192 155.2 26.0502C154.405 27.2718 153.254 28.2377 151.749 28.948C150.243 29.6487 148.415 29.9991 146.266 29.9991H133.212ZM140.243 24.3315H144.59C146.114 24.3315 147.236 24.0427 147.956 23.465C148.685 22.8874 149.05 22.0824 149.05 21.0502C149.05 20.3021 148.875 19.6582 148.524 19.1184C148.174 18.5692 147.677 18.1478 147.033 17.8542C146.389 17.5512 145.617 17.3997 144.717 17.3997H140.243V24.3315ZM140.243 12.8684H144.135C144.902 12.8684 145.584 12.7406 146.181 12.4849C146.777 12.2292 147.241 11.8599 147.573 11.377C147.913 10.894 148.084 10.3116 148.084 9.62979C148.084 8.65441 147.738 7.88737 147.047 7.32866C146.356 6.76995 145.423 6.49059 144.249 6.49059H140.243V12.8684Z" fill="#24FF00"/>
<path d="M161.374 29.9991V0.908203H181.658V6.61843H168.406V12.5843H180.621V18.3088H168.406V24.2889H181.658V29.9991H161.374Z" fill="#6A1D1D"/>
<path d="M193.954 29.9991H186.398L196.213 0.908203H205.574L215.389 29.9991H207.832L201 8.23775H200.773L193.954 29.9991ZM192.946 18.5502H208.741V23.8912H192.946V18.5502Z" fill="#6A1D1D"/>
<path d="M220.121 29.9991V0.908203H232.138C234.316 0.908203 236.196 1.3012 237.777 2.08718C239.368 2.8637 240.595 3.98112 241.456 5.43945C242.318 6.88832 242.749 8.60707 242.749 10.5957C242.749 12.6127 242.309 14.3268 241.428 15.7377C240.547 17.1393 239.297 18.2093 237.678 18.948C236.059 19.6771 234.141 20.0417 231.925 20.0417H224.326V14.502H230.618C231.679 14.502 232.564 14.3646 233.275 14.09C233.994 13.8059 234.539 13.3798 234.908 12.8116C235.277 12.234 235.462 11.4953 235.462 10.5957C235.462 9.69608 235.277 8.95271 234.908 8.36559C234.539 7.769 233.994 7.32392 233.275 7.03036C232.555 6.72733 231.669 6.57582 230.618 6.57582H227.152V29.9991H220.121ZM236.499 16.7037L243.743 29.9991H236.073L228.971 16.7037H236.499Z" fill="#6A1D1D"/>
</svg>
