<svg width="298" height="101" viewBox="0 0 298 101" fill="none" xmlns="http://www.w3.org/2000/svg">
<path d="M3.251 95V85.28H4.628L8.318 92.822L12.008 85.28H13.385V95H11.837V88.619L8.741 95H7.895L4.799 88.619V95H3.251ZM19.4087 95.27C18.4427 95.27 17.6087 95.051 16.9067 94.613C16.2107 94.175 15.6737 93.569 15.2957 92.795C14.9177 92.021 14.7287 91.133 14.7287 90.131C14.7287 89.111 14.9207 88.217 15.3047 87.449C15.6887 86.681 16.2317 86.084 16.9337 85.658C17.6357 85.226 18.4607 85.01 19.4087 85.01C20.3807 85.01 21.2177 85.229 21.9197 85.667C22.6217 86.099 23.1587 86.702 23.5307 87.476C23.9087 88.244 24.0977 89.129 24.0977 90.131C24.0977 91.145 23.9087 92.039 23.5307 92.813C23.1527 93.581 22.6127 94.184 21.9107 94.622C21.2087 95.054 20.3747 95.27 19.4087 95.27ZM19.4087 93.749C20.4167 93.749 21.1667 93.413 21.6587 92.741C22.1507 92.069 22.3967 91.199 22.3967 90.131C22.3967 89.033 22.1477 88.16 21.6497 87.512C21.1517 86.858 20.4047 86.531 19.4087 86.531C18.7307 86.531 18.1727 86.684 17.7347 86.99C17.2967 87.296 16.9697 87.719 16.7537 88.259C16.5377 88.799 16.4297 89.423 16.4297 90.131C16.4297 91.223 16.6817 92.099 17.1857 92.759C17.6897 93.419 18.4307 93.749 19.4087 93.749ZM24.7292 97.16V93.677C25.2752 93.677 25.6652 93.5 25.8992 93.146C26.1332 92.786 26.3222 92.195 26.4662 91.373C26.5622 90.857 26.6402 90.305 26.7002 89.717C26.7602 89.129 26.8112 88.475 26.8532 87.755C26.9012 87.029 26.9462 86.204 26.9882 85.28H33.6842V93.677H34.6292V97.16H33.0992V95H26.2592V97.16H24.7292ZM27.1952 93.677H32.0822V86.603H28.4372C28.4192 87.029 28.3952 87.476 28.3652 87.944C28.3352 88.406 28.2992 88.868 28.2572 89.33C28.2212 89.792 28.1762 90.23 28.1222 90.644C28.0742 91.052 28.0172 91.418 27.9512 91.742C27.8732 92.192 27.7832 92.573 27.6812 92.885C27.5792 93.197 27.4172 93.461 27.1952 93.677ZM40.0175 95.27C39.0635 95.27 38.2295 95.06 37.5155 94.64C36.8075 94.214 36.2555 93.623 35.8595 92.867C35.4635 92.105 35.2655 91.217 35.2655 90.203C35.2655 89.141 35.4605 88.223 35.8505 87.449C36.2405 86.669 36.7835 86.069 37.4795 85.649C38.1815 85.223 39.0035 85.01 39.9455 85.01C40.9235 85.01 41.7545 85.235 42.4385 85.685C43.1285 86.135 43.6445 86.777 43.9865 87.611C44.3345 88.445 44.4845 89.438 44.4365 90.59H42.8165V90.014C42.7985 88.82 42.5555 87.929 42.0875 87.341C41.6195 86.747 40.9235 86.45 39.9995 86.45C39.0095 86.45 38.2565 86.768 37.7405 87.404C37.2245 88.04 36.9665 88.952 36.9665 90.14C36.9665 91.286 37.2245 92.174 37.7405 92.804C38.2565 93.434 38.9915 93.749 39.9455 93.749C40.5875 93.749 41.1455 93.602 41.6195 93.308C42.0935 93.014 42.4655 92.591 42.7355 92.039L44.2745 92.57C43.8965 93.428 43.3265 94.094 42.5645 94.568C41.8085 95.036 40.9595 95.27 40.0175 95.27ZM36.4265 90.59V89.303H43.6085V90.59H36.4265ZM44.9103 95V93.623C45.2703 93.689 45.5433 93.677 45.7293 93.587C45.9213 93.491 46.0623 93.326 46.1523 93.092C46.2483 92.852 46.3263 92.552 46.3863 92.192C46.4883 91.622 46.5753 90.986 46.6473 90.284C46.7253 89.582 46.7943 88.814 46.8543 87.98C46.9203 87.14 46.9803 86.24 47.0343 85.28H53.8293V95H52.2273V86.801H48.4923C48.4563 87.353 48.4113 87.92 48.3573 88.502C48.3093 89.084 48.2583 89.651 48.2043 90.203C48.1503 90.749 48.0903 91.259 48.0243 91.733C47.9643 92.201 47.8983 92.606 47.8263 92.948C47.7123 93.536 47.5533 94.007 47.3493 94.361C47.1453 94.709 46.8513 94.934 46.4673 95.036C46.0833 95.144 45.5643 95.132 44.9103 95ZM63.6832 85.28V95H62.1352V87.836L57.0412 95H55.7182V85.28H57.2662V92.345L62.3692 85.28H63.6832Z" fill="#F4F4F4"/>
<path d="M115.68 82V64.72H122.472C123.568 64.72 124.488 64.944 125.232 65.392C125.976 65.84 126.536 66.42 126.912 67.132C127.288 67.836 127.476 68.58 127.476 69.364C127.476 70.316 127.24 71.132 126.768 71.812C126.304 72.492 125.676 72.956 124.884 73.204L124.86 72.616C125.964 72.888 126.812 73.42 127.404 74.212C127.996 74.996 128.292 75.912 128.292 76.96C128.292 77.976 128.088 78.86 127.68 79.612C127.28 80.364 126.692 80.952 125.916 81.376C125.148 81.792 124.216 82 123.12 82H115.68ZM118.224 79.612H122.736C123.304 79.612 123.812 79.504 124.26 79.288C124.716 79.072 125.072 78.764 125.328 78.364C125.592 77.956 125.724 77.472 125.724 76.912C125.724 76.392 125.608 75.924 125.376 75.508C125.152 75.084 124.824 74.752 124.392 74.512C123.968 74.264 123.468 74.14 122.892 74.14H118.224V79.612ZM118.224 71.776H122.436C122.9 71.776 123.316 71.684 123.684 71.5C124.06 71.308 124.356 71.036 124.572 70.684C124.796 70.324 124.908 69.892 124.908 69.388C124.908 68.716 124.684 68.164 124.236 67.732C123.788 67.3 123.188 67.084 122.436 67.084H118.224V71.776ZM132.24 82V64.72H134.748V82H132.24ZM139.672 82V64.72H141.94L148.204 77.716L154.432 64.72H156.724V81.988H154.348V70.168L148.768 82H147.628L142.036 70.168V82H139.672Z" fill="white"/>
<path d="M113.92 45V27.72H116.428V45H113.92ZM128.42 45.36C127.26 45.36 126.192 45.16 125.216 44.76C124.24 44.352 123.392 43.76 122.672 42.984C121.952 42.208 121.392 41.264 120.992 40.152C120.592 39.04 120.392 37.776 120.392 36.36C120.392 34.496 120.732 32.896 121.412 31.56C122.092 30.216 123.036 29.184 124.244 28.464C125.452 27.736 126.844 27.372 128.42 27.372C130.452 27.372 132.072 27.844 133.28 28.788C134.496 29.732 135.324 31.036 135.764 32.7L133.22 33.156C132.868 32.124 132.3 31.3 131.516 30.684C130.732 30.068 129.748 29.756 128.564 29.748C127.34 29.74 126.32 30.012 125.504 30.564C124.696 31.116 124.088 31.892 123.68 32.892C123.272 33.884 123.064 35.04 123.056 36.36C123.048 37.68 123.248 38.836 123.656 39.828C124.064 40.812 124.676 41.58 125.492 42.132C126.316 42.684 127.34 42.964 128.564 42.972C129.548 42.988 130.392 42.808 131.096 42.432C131.808 42.048 132.372 41.488 132.788 40.752C133.204 40.016 133.472 39.112 133.592 38.04H130.232V36.024H136.256C136.272 36.168 136.284 36.36 136.292 36.6C136.3 36.832 136.304 36.98 136.304 37.044C136.304 38.644 135.996 40.072 135.38 41.328C134.764 42.584 133.868 43.572 132.692 44.292C131.516 45.004 130.092 45.36 128.42 45.36ZM140.015 45V27.72H151.055V30.084H142.523V34.932H149.615V37.296H142.523V42.636H151.055V45H140.015ZM161.193 45.36C159.953 45.36 158.833 45.148 157.833 44.724C156.841 44.292 156.021 43.68 155.373 42.888C154.733 42.088 154.317 41.14 154.125 40.044L156.741 39.648C157.005 40.704 157.557 41.528 158.397 42.12C159.237 42.704 160.217 42.996 161.337 42.996C162.033 42.996 162.673 42.888 163.257 42.672C163.841 42.448 164.309 42.132 164.661 41.724C165.021 41.308 165.201 40.812 165.201 40.236C165.201 39.924 165.145 39.648 165.033 39.408C164.929 39.168 164.781 38.96 164.589 38.784C164.405 38.6 164.177 38.444 163.905 38.316C163.641 38.18 163.349 38.064 163.029 37.968L158.601 36.66C158.169 36.532 157.729 36.368 157.281 36.168C156.833 35.96 156.421 35.692 156.045 35.364C155.677 35.028 155.377 34.616 155.145 34.128C154.913 33.632 154.797 33.032 154.797 32.328C154.797 31.264 155.069 30.364 155.613 29.628C156.165 28.884 156.909 28.324 157.845 27.948C158.781 27.564 159.829 27.372 160.989 27.372C162.157 27.388 163.201 27.596 164.121 27.996C165.049 28.396 165.817 28.972 166.425 29.724C167.041 30.468 167.465 31.372 167.697 32.436L165.009 32.892C164.889 32.244 164.633 31.688 164.241 31.224C163.849 30.752 163.369 30.392 162.801 30.144C162.233 29.888 161.617 29.756 160.953 29.748C160.313 29.732 159.725 29.828 159.189 30.036C158.661 30.244 158.237 30.536 157.917 30.912C157.605 31.288 157.449 31.72 157.449 32.208C157.449 32.688 157.589 33.076 157.869 33.372C158.149 33.668 158.493 33.904 158.901 34.08C159.317 34.248 159.729 34.388 160.137 34.5L163.329 35.4C163.729 35.512 164.181 35.664 164.685 35.856C165.197 36.04 165.689 36.3 166.161 36.636C166.641 36.972 167.037 37.42 167.349 37.98C167.661 38.532 167.817 39.228 167.817 40.068C167.817 40.94 167.641 41.708 167.289 42.372C166.937 43.028 166.453 43.58 165.837 44.028C165.229 44.468 164.525 44.8 163.725 45.024C162.925 45.248 162.081 45.36 161.193 45.36ZM183.495 45.36C182.527 45.36 181.623 45.22 180.783 44.94C179.943 44.652 179.239 44.204 178.671 43.596C178.231 43.108 177.903 42.572 177.687 41.988C177.479 41.396 177.363 40.768 177.339 40.104C177.339 39.456 177.431 38.828 177.615 38.22C177.807 37.604 178.107 37.056 178.515 36.576C178.699 36.352 178.903 36.16 179.127 36C179.351 35.832 179.575 35.684 179.799 35.556C179.287 34.996 178.899 34.464 178.635 33.96C178.371 33.448 178.239 32.844 178.239 32.148C178.239 31.172 178.495 30.296 179.007 29.52C179.519 28.736 180.219 28.172 181.107 27.828C181.515 27.66 181.931 27.548 182.355 27.492C182.779 27.428 183.191 27.396 183.591 27.396C184.311 27.396 185.007 27.5 185.679 27.708C186.351 27.916 186.927 28.256 187.407 28.728C187.711 29.008 187.967 29.324 188.175 29.676C188.391 30.028 188.555 30.388 188.667 30.756L186.195 31.332C186.059 30.948 185.835 30.624 185.523 30.36C185.259 30.128 184.951 29.972 184.599 29.892C184.255 29.804 183.911 29.76 183.567 29.76C182.999 29.76 182.487 29.868 182.031 30.084C181.615 30.284 181.303 30.56 181.095 30.912C180.887 31.256 180.783 31.672 180.783 32.16C180.783 32.592 180.859 32.94 181.011 33.204C181.163 33.468 181.367 33.744 181.623 34.032C181.775 34.2 181.955 34.38 182.163 34.572C182.379 34.764 182.599 34.964 182.823 35.172L187.527 39.552C187.543 39.376 187.555 39.188 187.563 38.988C187.571 38.788 187.575 38.596 187.575 38.412L187.563 36.168H189.807V39.132C189.807 39.636 189.791 40.092 189.759 40.5C189.735 40.9 189.687 41.228 189.615 41.484L191.775 43.488L190.155 45.228L188.415 43.572C188.047 43.94 187.635 44.252 187.179 44.508C186.723 44.756 186.263 44.94 185.799 45.06C185.407 45.18 185.019 45.26 184.635 45.3C184.259 45.34 183.879 45.36 183.495 45.36ZM183.567 42.96C183.887 42.96 184.183 42.944 184.455 42.912C184.727 42.872 184.987 42.8 185.235 42.696C185.571 42.56 185.843 42.42 186.051 42.276C186.267 42.132 186.447 41.992 186.591 41.856L181.671 37.344C181.423 37.432 181.191 37.548 180.975 37.692C180.767 37.828 180.587 37.988 180.435 38.172C180.251 38.404 180.111 38.676 180.015 38.988C179.927 39.292 179.887 39.62 179.895 39.972C179.895 40.356 179.955 40.708 180.075 41.028C180.203 41.34 180.367 41.62 180.567 41.868C180.887 42.252 181.331 42.532 181.899 42.708C182.475 42.876 183.031 42.96 183.567 42.96ZM201.154 45V27.72H206.566C206.726 27.72 207.022 27.724 207.454 27.732C207.894 27.74 208.314 27.772 208.714 27.828C210.066 27.996 211.202 28.48 212.122 29.28C213.05 30.08 213.75 31.096 214.222 32.328C214.694 33.552 214.93 34.896 214.93 36.36C214.93 37.832 214.694 39.184 214.222 40.416C213.75 41.64 213.05 42.652 212.122 43.452C211.202 44.244 210.066 44.724 208.714 44.892C208.314 44.948 207.894 44.98 207.454 44.988C207.022 44.996 206.726 45 206.566 45H201.154ZM203.722 42.612H206.566C206.838 42.612 207.162 42.604 207.538 42.588C207.914 42.572 208.246 42.54 208.534 42.492C209.414 42.324 210.126 41.944 210.67 41.352C211.222 40.752 211.626 40.016 211.882 39.144C212.138 38.272 212.266 37.344 212.266 36.36C212.266 35.344 212.134 34.404 211.87 33.54C211.606 32.668 211.198 31.94 210.646 31.356C210.102 30.764 209.398 30.388 208.534 30.228C208.246 30.172 207.91 30.14 207.526 30.132C207.15 30.116 206.83 30.108 206.566 30.108H203.722V42.612ZM221.978 45L216.962 27.72H219.59L223.226 40.788L226.862 27.732L229.502 27.72L233.138 40.788L236.774 27.72H239.414L234.386 45H231.89L228.182 32.076L224.474 45H221.978ZM249.347 45.36C248.187 45.36 247.119 45.16 246.143 44.76C245.167 44.352 244.319 43.76 243.599 42.984C242.879 42.208 242.319 41.264 241.919 40.152C241.519 39.04 241.319 37.776 241.319 36.36C241.319 34.496 241.659 32.896 242.339 31.56C243.019 30.216 243.963 29.184 245.171 28.464C246.379 27.736 247.771 27.372 249.347 27.372C251.379 27.372 252.999 27.844 254.207 28.788C255.423 29.732 256.251 31.036 256.691 32.7L254.147 33.156C253.795 32.124 253.227 31.3 252.443 30.684C251.659 30.068 250.675 29.756 249.491 29.748C248.267 29.74 247.247 30.012 246.431 30.564C245.623 31.116 245.015 31.892 244.607 32.892C244.199 33.884 243.991 35.04 243.983 36.36C243.975 37.68 244.175 38.836 244.583 39.828C244.991 40.812 245.603 41.58 246.419 42.132C247.243 42.684 248.267 42.964 249.491 42.972C250.475 42.988 251.319 42.808 252.023 42.432C252.735 42.048 253.299 41.488 253.715 40.752C254.131 40.016 254.399 39.112 254.519 38.04H251.159V36.024H257.183C257.199 36.168 257.211 36.36 257.219 36.6C257.227 36.832 257.231 36.98 257.231 37.044C257.231 38.644 256.923 40.072 256.307 41.328C255.691 42.584 254.795 43.572 253.619 44.292C252.443 45.004 251.019 45.36 249.347 45.36Z" fill="#E7441C"/>
<path d="M17.12 70.896C14.8373 70.896 12.7147 70.48 10.752 69.648C8.78933 68.7947 7.09333 67.6 5.664 66.064C4.256 64.5067 3.22133 62.6613 2.56 60.528L8.032 58.96C8.736 61.0933 9.90933 62.7147 11.552 63.824C13.1947 64.9333 15.04 65.4773 17.088 65.456C18.9653 65.4133 20.5867 64.9867 21.952 64.176C23.3387 63.344 24.4053 62.2133 25.152 60.784C25.92 59.3547 26.304 57.7013 26.304 55.824C26.304 52.9653 25.4507 50.6507 23.744 48.88C22.0373 47.088 19.7973 46.192 17.024 46.192C16.256 46.192 15.4453 46.2987 14.592 46.512C13.76 46.7253 12.9813 47.024 12.256 47.408L9.504 42.896L26.592 27.44L27.328 29.36H4.384V23.92H31.552V29.392L16.992 43.344L16.928 41.328C19.9787 41.1147 22.6453 41.616 24.928 42.832C27.2107 44.048 28.9813 45.7867 30.24 48.048C31.52 50.3093 32.16 52.9013 32.16 55.824C32.16 58.768 31.4987 61.3707 30.176 63.632C28.8533 65.8933 27.0613 67.6747 24.8 68.976C22.5387 70.256 19.9787 70.896 17.12 70.896ZM38.24 70V23.92H52.448C52.9173 23.92 53.7387 23.9307 54.912 23.952C56.0853 23.9733 57.2053 24.0587 58.272 24.208C61.8347 24.6773 64.8107 25.9787 67.2 28.112C69.6107 30.224 71.424 32.912 72.64 36.176C73.856 39.44 74.464 43.0347 74.464 46.96C74.464 50.8853 73.856 54.48 72.64 57.744C71.424 61.008 69.6107 63.7067 67.2 65.84C64.8107 67.952 61.8347 69.2427 58.272 69.712C57.2053 69.84 56.0747 69.9253 54.88 69.968C53.7067 69.9893 52.896 70 52.448 70H38.24ZM44.096 64.56H52.448C53.2587 64.56 54.1653 64.5387 55.168 64.496C56.1707 64.432 57.0453 64.336 57.792 64.208C60.3093 63.7387 62.3467 62.6827 63.904 61.04C65.4613 59.3973 66.6027 57.3493 67.328 54.896C68.0533 52.4427 68.416 49.7973 68.416 46.96C68.416 44.0587 68.0427 41.3813 67.296 38.928C66.5707 36.4747 65.4293 34.4373 63.872 32.816C62.3147 31.1947 60.288 30.16 57.792 29.712C57.0453 29.5627 56.16 29.4667 55.136 29.424C54.112 29.3813 53.216 29.36 52.448 29.36H44.096V64.56Z" fill="white"/>
<path d="M290.324 34.8727C290.01 34.8727 289.754 35.1269 289.754 35.441C289.754 35.7556 290.01 36.0092 290.324 36.0092H296.863V45.706H270.136V36.0097H276.959C277.274 36.0097 277.529 35.7561 277.529 35.4414C277.529 35.1274 277.275 34.8732 276.959 34.8732H269V46.8447H298V34.8727H290.324Z" fill="white"/>
<path d="M282.847 43.376C282.978 43.5078 283.152 43.575 283.327 43.575C283.331 43.575 283.334 43.5721 283.338 43.5721C283.343 43.5721 283.346 43.575 283.35 43.575C283.526 43.575 283.7 43.506 283.83 43.376L287.628 39.5793C287.894 39.313 287.894 38.8828 287.628 38.6171C287.362 38.352 286.932 38.352 286.666 38.6171L284.031 41.2531V22.835C284.031 22.46 283.727 22.1552 283.35 22.1552C282.975 22.1552 282.669 22.46 282.669 22.835V41.276L280.012 38.6176C279.746 38.3524 279.316 38.3524 279.05 38.6176C278.784 38.8833 278.784 39.3135 279.05 39.5798L282.847 43.376Z" fill="white"/>
<path d="M191.324 71.8727C191.01 71.8727 190.754 72.1269 190.754 72.441C190.754 72.7556 191.01 73.0092 191.324 73.0092H197.863V82.706H171.136V73.0097H177.959C178.274 73.0097 178.529 72.7561 178.529 72.4414C178.529 72.1274 178.275 71.8732 177.959 71.8732H170V83.8447H199V71.8727H191.324Z" fill="white"/>
<path d="M183.847 80.376C183.978 80.5078 184.152 80.575 184.327 80.575C184.331 80.575 184.334 80.5721 184.338 80.5721C184.343 80.5721 184.346 80.575 184.35 80.575C184.526 80.575 184.7 80.506 184.83 80.376L188.628 76.5793C188.894 76.313 188.894 75.8828 188.628 75.6171C188.362 75.352 187.932 75.352 187.666 75.6171L185.031 78.2531V59.835C185.031 59.46 184.727 59.1552 184.35 59.1552C183.975 59.1552 183.669 59.46 183.669 59.835V78.276L181.012 75.6176C180.746 75.3524 180.316 75.3524 180.05 75.6176C179.784 75.8833 179.784 76.3135 180.05 76.5798L183.847 80.376Z" fill="white"/>
</svg>
