<svg width="273" height="19" viewBox="0 0 273 19" fill="none" xmlns="http://www.w3.org/2000/svg">
<path d="M195.296 1.40002V14H198.932V1.40002H195.296ZM203.018 1.40002L197.924 7.41202L203.126 14H207.356L202.082 7.30402L207.086 1.40002H203.018Z" fill="#CDCDCD"/>
<path d="M208.513 1.40002V9.86002C208.513 10.712 208.651 11.438 208.927 12.038C209.203 12.638 209.581 13.13 210.061 13.514C210.553 13.886 211.117 14.162 211.753 14.342C212.401 14.522 213.085 14.612 213.805 14.612C214.537 14.612 215.221 14.522 215.857 14.342C216.493 14.162 217.057 13.886 217.549 13.514C218.041 13.13 218.425 12.638 218.701 12.038C218.977 11.438 219.115 10.712 219.115 9.86002V1.40002H215.623V9.57202C215.623 10.148 215.473 10.616 215.173 10.976C214.873 11.324 214.417 11.498 213.805 11.498C213.205 11.498 212.755 11.324 212.455 10.976C212.155 10.616 212.005 10.148 212.005 9.57202V1.40002H208.513Z" fill="#CDCDCD"/>
<path d="M221.61 1.40002V14H225.102V1.40002H221.61ZM223.842 4.22602H226.272C226.824 4.22602 227.25 4.34602 227.55 4.58602C227.85 4.82602 228 5.16802 228 5.61202C228 6.06802 227.85 6.41602 227.55 6.65602C227.25 6.89602 226.824 7.01602 226.272 7.01602H223.842V9.82402H226.272C227.424 9.82402 228.372 9.65602 229.116 9.32002C229.872 8.98402 230.43 8.49802 230.79 7.86202C231.162 7.22602 231.348 6.47602 231.348 5.61202C231.348 4.73602 231.162 3.98602 230.79 3.36202C230.43 2.73802 229.872 2.25802 229.116 1.92202C228.372 1.57402 227.424 1.40002 226.272 1.40002H223.842V4.22602Z" fill="#CDCDCD"/>
<path d="M236.326 7.70002C236.326 6.99202 236.482 6.39202 236.794 5.90002C237.118 5.39602 237.544 5.01802 238.072 4.76602C238.6 4.50202 239.182 4.37002 239.818 4.37002C240.418 4.37002 240.94 4.44802 241.384 4.60402C241.828 4.76002 242.224 4.96402 242.572 5.21602C242.92 5.45602 243.226 5.71402 243.49 5.99002V2.31802C242.998 1.94602 242.452 1.64602 241.852 1.41802C241.264 1.19002 240.508 1.07602 239.584 1.07602C238.54 1.07602 237.58 1.23202 236.704 1.54402C235.828 1.85602 235.078 2.30602 234.454 2.89402C233.83 3.48202 233.344 4.18402 232.996 5.00002C232.66 5.80402 232.492 6.70402 232.492 7.70002C232.492 8.69602 232.66 9.60202 232.996 10.418C233.344 11.222 233.83 11.918 234.454 12.506C235.078 13.094 235.828 13.544 236.704 13.856C237.58 14.168 238.54 14.324 239.584 14.324C240.508 14.324 241.264 14.21 241.852 13.982C242.452 13.742 242.998 13.442 243.49 13.082V9.41002C243.226 9.68602 242.92 9.95002 242.572 10.202C242.224 10.442 241.828 10.64 241.384 10.796C240.94 10.952 240.418 11.03 239.818 11.03C239.182 11.03 238.6 10.904 238.072 10.652C237.544 10.388 237.118 10.01 236.794 9.51802C236.482 9.01402 236.326 8.40802 236.326 7.70002Z" fill="#CDCDCD"/>
<path d="M248.873 7.70002C248.873 7.01602 249.005 6.41602 249.269 5.90002C249.533 5.38402 249.905 4.98202 250.385 4.69402C250.865 4.39402 251.429 4.24402 252.077 4.24402C252.761 4.24402 253.337 4.39402 253.805 4.69402C254.285 4.98202 254.651 5.38402 254.903 5.90002C255.155 6.41602 255.281 7.01602 255.281 7.70002C255.281 8.37202 255.149 8.97202 254.885 9.50002C254.621 10.016 254.249 10.424 253.769 10.724C253.301 11.012 252.737 11.156 252.077 11.156C251.429 11.156 250.865 11.012 250.385 10.724C249.905 10.424 249.533 10.016 249.269 9.50002C249.005 8.97202 248.873 8.37202 248.873 7.70002ZM245.183 7.70002C245.183 8.68402 245.351 9.59002 245.687 10.418C246.023 11.246 246.497 11.966 247.109 12.578C247.733 13.178 248.465 13.646 249.305 13.982C250.145 14.306 251.069 14.468 252.077 14.468C253.085 14.468 254.009 14.306 254.849 13.982C255.701 13.646 256.433 13.178 257.045 12.578C257.657 11.966 258.131 11.246 258.467 10.418C258.803 9.59002 258.971 8.68402 258.971 7.70002C258.971 6.70402 258.797 5.80402 258.449 5.00002C258.113 4.18402 257.633 3.48802 257.009 2.91202C256.385 2.32402 255.653 1.87402 254.813 1.56202C253.985 1.23802 253.073 1.07602 252.077 1.07602C251.105 1.07602 250.199 1.23802 249.359 1.56202C248.531 1.87402 247.805 2.32402 247.181 2.91202C246.557 3.48802 246.065 4.18402 245.705 5.00002C245.357 5.80402 245.183 6.70402 245.183 7.70002Z" fill="#CDCDCD"/>
<path d="M265.808 8.25802L263.054 1.40002H258.95L265.808 14.846L272.684 1.40002H268.58L265.808 8.25802Z" fill="#CDCDCD"/>
<path d="M0.656998 16.16V12.731C1.161 12.731 1.566 12.605 1.872 12.353C2.178 12.095 2.412 11.753 2.574 11.327C2.736 10.901 2.859 10.424 2.943 9.89602C3.027 9.36202 3.099 8.82202 3.159 8.27602C3.243 7.47802 3.309 6.70702 3.357 5.96302C3.411 5.21902 3.456 4.44802 3.492 3.65002C3.534 2.85202 3.582 1.97902 3.636 1.03102L11.628 1.04002V12.731H12.555V16.16H11.241V14H1.98V16.16H0.656998ZM3.186 12.731H10.305V2.30902L4.869 2.30002C4.833 3.03202 4.797 3.74002 4.761 4.42402C4.725 5.10802 4.683 5.79802 4.635 6.49402C4.587 7.19002 4.524 7.91602 4.446 8.67202C4.38 9.36202 4.302 9.96502 4.212 10.481C4.122 10.997 3.996 11.438 3.834 11.804C3.678 12.17 3.462 12.479 3.186 12.731Z" fill="#CDCDCD"/>
<path d="M22.2535 4.28002V14H20.9665V6.43102L15.6385 14H14.5225V4.28002H15.8095V11.786L21.1465 4.28002H22.2535Z" fill="#CDCDCD"/>
<path d="M28.2805 14.27C27.3025 14.27 26.4475 14.057 25.7155 13.631C24.9895 13.199 24.4165 12.602 23.9965 11.84L25.0585 11.165C25.4125 11.765 25.8535 12.221 26.3815 12.533C26.9095 12.845 27.5155 13.001 28.1995 13.001C28.9135 13.001 29.4865 12.836 29.9185 12.506C30.3505 12.176 30.5665 11.723 30.5665 11.147C30.5665 10.751 30.4735 10.436 30.2875 10.202C30.1075 9.96802 29.8315 9.80002 29.4595 9.69802C29.0935 9.59602 28.6345 9.54502 28.0825 9.54502H26.9305V8.41102H28.0645C28.7365 8.41102 29.2765 8.29102 29.6845 8.05102C30.0985 7.80502 30.3055 7.42102 30.3055 6.89902C30.3055 6.34702 30.0985 5.93902 29.6845 5.67502C29.2765 5.40502 28.7875 5.27002 28.2175 5.27002C27.6415 5.27002 27.0955 5.39002 26.5795 5.63002C26.0695 5.86402 25.6405 6.16702 25.2925 6.53902L24.4465 5.64802C24.9325 5.11402 25.4995 4.70902 26.1475 4.43302C26.8015 4.15102 27.5245 4.01002 28.3165 4.01002C28.9405 4.01002 29.5045 4.12102 30.0085 4.34302C30.5185 4.55902 30.9205 4.87702 31.2145 5.29702C31.5145 5.71702 31.6645 6.22102 31.6645 6.80902C31.6645 7.36102 31.5295 7.83802 31.2595 8.24002C30.9955 8.64202 30.6205 8.97502 30.1345 9.23902L30.0625 8.74402C30.4825 8.82202 30.8305 8.99002 31.1065 9.24802C31.3825 9.50602 31.5865 9.81502 31.7185 10.175C31.8505 10.535 31.9165 10.901 31.9165 11.273C31.9165 11.891 31.7545 12.425 31.4305 12.875C31.1125 13.319 30.6775 13.664 30.1255 13.91C29.5795 14.15 28.9645 14.27 28.2805 14.27Z" fill="#CDCDCD"/>
<path d="M36.6836 14.27C35.9516 14.27 35.3366 14.138 34.8386 13.874C34.3466 13.61 33.9776 13.259 33.7316 12.821C33.4856 12.383 33.3626 11.906 33.3626 11.39C33.3626 10.862 33.4676 10.412 33.6776 10.04C33.8936 9.66202 34.1846 9.35302 34.5506 9.11302C34.9226 8.87302 35.3516 8.69002 35.8376 8.56402C36.3296 8.44402 36.8726 8.33902 37.4666 8.24902C38.0666 8.15302 38.6516 8.07202 39.2216 8.00602C39.7976 7.93402 40.3016 7.86502 40.7336 7.79902L40.2656 8.08702C40.2836 7.12702 40.0976 6.41602 39.7076 5.95402C39.3176 5.49202 38.6396 5.26102 37.6736 5.26102C37.0076 5.26102 36.4436 5.41102 35.9816 5.71102C35.5256 6.01102 35.2046 6.48502 35.0186 7.13302L33.7316 6.75502C33.9536 5.88502 34.4006 5.21002 35.0726 4.73002C35.7446 4.25002 36.6176 4.01002 37.6916 4.01002C38.5796 4.01002 39.3326 4.17802 39.9506 4.51402C40.5746 4.84402 41.0156 5.32402 41.2736 5.95402C41.3936 6.23602 41.4716 6.55102 41.5076 6.89902C41.5436 7.24702 41.5616 7.60102 41.5616 7.96102V14H40.3826V11.561L40.7246 11.705C40.3946 12.539 39.8816 13.175 39.1856 13.613C38.4896 14.051 37.6556 14.27 36.6836 14.27ZM36.8366 13.127C37.4546 13.127 37.9946 13.016 38.4566 12.794C38.9186 12.572 39.2906 12.269 39.5726 11.885C39.8546 11.495 40.0376 11.057 40.1216 10.571C40.1936 10.259 40.2326 9.91702 40.2386 9.54502C40.2446 9.16702 40.2476 8.88502 40.2476 8.69902L40.7516 8.96002C40.3016 9.02002 39.8126 9.08002 39.2846 9.14002C38.7626 9.20002 38.2466 9.26902 37.7366 9.34702C37.2326 9.42502 36.7766 9.51802 36.3686 9.62602C36.0926 9.70402 35.8256 9.81502 35.5676 9.95902C35.3096 10.097 35.0966 10.283 34.9286 10.517C34.7666 10.751 34.6856 11.042 34.6856 11.39C34.6856 11.672 34.7546 11.945 34.8926 12.209C35.0366 12.473 35.2646 12.692 35.5766 12.866C35.8946 13.04 36.3146 13.127 36.8366 13.127Z" fill="#CDCDCD"/>
<path d="M47.9365 3.12802C47.5105 3.12802 47.1205 3.02302 46.7665 2.81302C46.4125 2.60302 46.1305 2.32402 45.9205 1.97602C45.7165 1.62202 45.6145 1.23202 45.6145 0.806019H46.7125C46.7125 1.14202 46.8325 1.43002 47.0725 1.67002C47.3125 1.91002 47.6005 2.03002 47.9365 2.03002C48.2785 2.03002 48.5665 1.91002 48.8005 1.67002C49.0405 1.43002 49.1605 1.14202 49.1605 0.806019H50.2585C50.2585 1.23202 50.1535 1.62202 49.9435 1.97602C49.7395 2.32402 49.4605 2.60302 49.1065 2.81302C48.7525 3.02302 48.3625 3.12802 47.9365 3.12802ZM51.6265 4.28002V14H50.3395V6.43102L45.0115 14H43.8955V4.28002H45.1825V11.786L50.5195 4.28002H51.6265Z" fill="#CDCDCD"/>
<path d="M54.1436 14V4.28002H55.4666V8.50102H60.9476V4.28002H62.2706V14H60.9476V9.77002H55.4666V14H54.1436Z" fill="#CDCDCD"/>
<path d="M72.5579 14.27C71.8379 14.27 71.1689 14.168 70.5509 13.964C69.9389 13.754 69.4259 13.427 69.0119 12.983C68.6879 12.635 68.4479 12.248 68.2919 11.822C68.1359 11.39 68.0489 10.934 68.0309 10.454C68.0249 9.99802 68.0909 9.54502 68.2289 9.09502C68.3669 8.64502 68.5829 8.24602 68.8769 7.89802C69.0509 7.68202 69.2459 7.50202 69.4619 7.35802C69.6839 7.21402 69.9119 7.09102 70.1459 6.98902C69.6959 6.52102 69.3509 6.08902 69.1109 5.69302C68.8769 5.29102 68.7599 4.79902 68.7599 4.21702C68.7599 3.55102 68.9279 2.94202 69.2639 2.39002C69.6059 1.83802 70.0769 1.42702 70.6769 1.15702C70.9829 1.01902 71.2949 0.923019 71.6129 0.869019C71.9369 0.809019 72.2579 0.779019 72.5759 0.779019C73.0619 0.779019 73.5389 0.848019 74.0069 0.986019C74.4749 1.11802 74.8739 1.32802 75.2039 1.61602C75.4259 1.79002 75.6209 1.99702 75.7889 2.23702C75.9569 2.47102 76.0889 2.71702 76.1849 2.97502L74.9069 3.35302C74.7809 3.02902 74.5709 2.75602 74.2769 2.53402C74.0489 2.35402 73.7849 2.22802 73.4849 2.15602C73.1909 2.08402 72.8939 2.04802 72.5939 2.04802C72.0839 2.04802 71.6219 2.14702 71.2079 2.34502C70.8479 2.52502 70.5779 2.77402 70.3979 3.09202C70.2179 3.41002 70.1279 3.78202 70.1279 4.20802C70.1279 4.57402 70.1879 4.87702 70.3079 5.11702C70.4279 5.35102 70.6019 5.60602 70.8299 5.88202C70.9619 6.02602 71.1089 6.17302 71.2709 6.32302C71.4329 6.46702 71.5979 6.61702 71.7659 6.77302L75.8699 10.58C75.8939 10.412 75.9089 10.25 75.9149 10.094C75.9209 9.93202 75.9239 9.77302 75.9239 9.61702L75.9149 7.71802H77.1659V9.70702C77.1659 10.181 77.1479 10.568 77.1119 10.868C77.0759 11.168 77.0279 11.417 76.9679 11.615L78.6419 13.154L77.7689 14.081L76.3379 12.731C76.1399 12.989 75.8879 13.22 75.5819 13.424C75.2819 13.628 74.9819 13.787 74.6819 13.901C74.3579 14.045 74.0159 14.141 73.6559 14.189C73.2959 14.243 72.9299 14.27 72.5579 14.27ZM72.5759 12.992C72.9179 12.992 73.2269 12.971 73.5029 12.929C73.7789 12.887 74.0429 12.8 74.2949 12.668C74.6129 12.5 74.8499 12.344 75.0059 12.2C75.1619 12.05 75.2879 11.918 75.3839 11.804L71.1719 7.95202C70.9199 8.03002 70.6829 8.13802 70.4609 8.27602C70.2449 8.40802 70.0589 8.56702 69.9029 8.75302C69.7289 8.96902 69.5999 9.21802 69.5159 9.50002C69.4319 9.78202 69.3899 10.079 69.3899 10.391C69.4019 10.721 69.4559 11.027 69.5519 11.309C69.6539 11.585 69.8039 11.831 70.0019 12.047C70.2839 12.377 70.6619 12.617 71.1359 12.767C71.6099 12.917 72.0899 12.992 72.5759 12.992Z" fill="#CDCDCD"/>
<path d="M83.719 14V1.04002H88.723C88.849 1.04002 88.99 1.04602 89.146 1.05802C89.308 1.06402 89.47 1.08202 89.632 1.11202C90.31 1.21402 90.883 1.45102 91.351 1.82302C91.825 2.18902 92.182 2.65102 92.422 3.20902C92.668 3.76702 92.791 4.38502 92.791 5.06302C92.791 5.73502 92.668 6.35002 92.422 6.90802C92.176 7.46602 91.816 7.93102 91.342 8.30302C90.874 8.66902 90.304 8.90302 89.632 9.00502C89.47 9.02902 89.308 9.04702 89.146 9.05902C88.99 9.07102 88.849 9.07702 88.723 9.07702H85.042V14H83.719ZM85.042 7.81702H88.687C88.795 7.81702 88.921 7.81102 89.065 7.79902C89.209 7.78702 89.35 7.76602 89.488 7.73602C89.932 7.64002 90.295 7.45702 90.577 7.18702C90.865 6.91702 91.078 6.59602 91.216 6.22402C91.36 5.85202 91.432 5.46502 91.432 5.06302C91.432 4.66102 91.36 4.27402 91.216 3.90202C91.078 3.52402 90.865 3.20002 90.577 2.93002C90.295 2.66002 89.932 2.47702 89.488 2.38102C89.35 2.35102 89.209 2.33302 89.065 2.32702C88.921 2.31502 88.795 2.30902 88.687 2.30902H85.042V7.81702Z" fill="#CDCDCD"/>
<path d="M97.3633 14.27C96.6313 14.27 96.0163 14.138 95.5183 13.874C95.0263 13.61 94.6573 13.259 94.4113 12.821C94.1653 12.383 94.0423 11.906 94.0423 11.39C94.0423 10.862 94.1473 10.412 94.3573 10.04C94.5733 9.66202 94.8643 9.35302 95.2303 9.11302C95.6023 8.87302 96.0313 8.69002 96.5173 8.56402C97.0093 8.44402 97.5523 8.33902 98.1463 8.24902C98.7463 8.15302 99.3313 8.07202 99.9013 8.00602C100.477 7.93402 100.981 7.86502 101.413 7.79902L100.945 8.08702C100.963 7.12702 100.777 6.41602 100.387 5.95402C99.9973 5.49202 99.3193 5.26102 98.3533 5.26102C97.6873 5.26102 97.1233 5.41102 96.6613 5.71102C96.2053 6.01102 95.8843 6.48502 95.6983 7.13302L94.4113 6.75502C94.6333 5.88502 95.0803 5.21002 95.7523 4.73002C96.4243 4.25002 97.2973 4.01002 98.3713 4.01002C99.2593 4.01002 100.012 4.17802 100.63 4.51402C101.254 4.84402 101.695 5.32402 101.953 5.95402C102.073 6.23602 102.151 6.55102 102.187 6.89902C102.223 7.24702 102.241 7.60102 102.241 7.96102V14H101.062V11.561L101.404 11.705C101.074 12.539 100.561 13.175 99.8653 13.613C99.1693 14.051 98.3353 14.27 97.3633 14.27ZM97.5163 13.127C98.1343 13.127 98.6743 13.016 99.1363 12.794C99.5983 12.572 99.9703 12.269 100.252 11.885C100.534 11.495 100.717 11.057 100.801 10.571C100.873 10.259 100.912 9.91702 100.918 9.54502C100.924 9.16702 100.927 8.88502 100.927 8.69902L101.431 8.96002C100.981 9.02002 100.492 9.08002 99.9643 9.14002C99.4423 9.20002 98.9263 9.26902 98.4163 9.34702C97.9123 9.42502 97.4563 9.51802 97.0483 9.62602C96.7723 9.70402 96.5053 9.81502 96.2473 9.95902C95.9893 10.097 95.7763 10.283 95.6083 10.517C95.4463 10.751 95.3653 11.042 95.3653 11.39C95.3653 11.672 95.4343 11.945 95.5723 12.209C95.7163 12.473 95.9443 12.692 96.2563 12.866C96.5743 13.04 96.9943 13.127 97.5163 13.127Z" fill="#CDCDCD"/>
<path d="M108.085 14.27C107.107 14.27 106.252 14.057 105.52 13.631C104.794 13.199 104.221 12.602 103.801 11.84L104.863 11.165C105.217 11.765 105.658 12.221 106.186 12.533C106.714 12.845 107.32 13.001 108.004 13.001C108.718 13.001 109.291 12.836 109.723 12.506C110.155 12.176 110.371 11.723 110.371 11.147C110.371 10.751 110.278 10.436 110.092 10.202C109.912 9.96802 109.636 9.80002 109.264 9.69802C108.898 9.59602 108.439 9.54502 107.887 9.54502H106.735V8.41102H107.869C108.541 8.41102 109.081 8.29102 109.489 8.05102C109.903 7.80502 110.11 7.42102 110.11 6.89902C110.11 6.34702 109.903 5.93902 109.489 5.67502C109.081 5.40502 108.592 5.27002 108.022 5.27002C107.446 5.27002 106.9 5.39002 106.384 5.63002C105.874 5.86402 105.445 6.16702 105.097 6.53902L104.251 5.64802C104.737 5.11402 105.304 4.70902 105.952 4.43302C106.606 4.15102 107.329 4.01002 108.121 4.01002C108.745 4.01002 109.309 4.12102 109.813 4.34302C110.323 4.55902 110.725 4.87702 111.019 5.29702C111.319 5.71702 111.469 6.22102 111.469 6.80902C111.469 7.36102 111.334 7.83802 111.064 8.24002C110.8 8.64202 110.425 8.97502 109.939 9.23902L109.867 8.74402C110.287 8.82202 110.635 8.99002 110.911 9.24802C111.187 9.50602 111.391 9.81502 111.523 10.175C111.655 10.535 111.721 10.901 111.721 11.273C111.721 11.891 111.559 12.425 111.235 12.875C110.917 13.319 110.482 13.664 109.93 13.91C109.384 14.15 108.769 14.27 108.085 14.27Z" fill="#CDCDCD"/>
<path d="M118.072 14.27C117.178 14.27 116.422 14.045 115.804 13.595C115.186 13.139 114.718 12.524 114.4 11.75C114.082 10.97 113.923 10.097 113.923 9.13102C113.923 8.14702 114.082 7.27102 114.4 6.50302C114.724 5.72902 115.198 5.12002 115.822 4.67602C116.446 4.23202 117.214 4.01002 118.126 4.01002C119.014 4.01002 119.776 4.23502 120.412 4.68502C121.048 5.13502 121.534 5.74702 121.87 6.52102C122.212 7.29502 122.383 8.16502 122.383 9.13102C122.383 10.103 122.212 10.976 121.87 11.75C121.528 12.524 121.036 13.139 120.394 13.595C119.752 14.045 118.978 14.27 118.072 14.27ZM113.698 18.32V4.28002H114.886V11.597H115.03V18.32H113.698ZM117.937 13.037C118.615 13.037 119.179 12.866 119.629 12.524C120.079 12.182 120.415 11.717 120.637 11.129C120.865 10.535 120.979 9.86902 120.979 9.13102C120.979 8.39902 120.868 7.73902 120.646 7.15102C120.424 6.56302 120.085 6.09802 119.629 5.75602C119.179 5.41402 118.606 5.24302 117.91 5.24302C117.232 5.24302 116.668 5.40802 116.218 5.73802C115.774 6.06802 115.441 6.52702 115.219 7.11502C114.997 7.69702 114.886 8.36902 114.886 9.13102C114.886 9.88102 114.997 10.553 115.219 11.147C115.441 11.735 115.777 12.197 116.227 12.533C116.677 12.869 117.247 13.037 117.937 13.037Z" fill="#CDCDCD"/>
<path d="M127.141 14.27C126.409 14.27 125.794 14.138 125.296 13.874C124.804 13.61 124.435 13.259 124.189 12.821C123.943 12.383 123.82 11.906 123.82 11.39C123.82 10.862 123.925 10.412 124.135 10.04C124.351 9.66202 124.642 9.35302 125.008 9.11302C125.38 8.87302 125.809 8.69002 126.295 8.56402C126.787 8.44402 127.33 8.33902 127.924 8.24902C128.524 8.15302 129.109 8.07202 129.679 8.00602C130.255 7.93402 130.759 7.86502 131.191 7.79902L130.723 8.08702C130.741 7.12702 130.555 6.41602 130.165 5.95402C129.775 5.49202 129.097 5.26102 128.131 5.26102C127.465 5.26102 126.901 5.41102 126.439 5.71102C125.983 6.01102 125.662 6.48502 125.476 7.13302L124.189 6.75502C124.411 5.88502 124.858 5.21002 125.53 4.73002C126.202 4.25002 127.075 4.01002 128.149 4.01002C129.037 4.01002 129.79 4.17802 130.408 4.51402C131.032 4.84402 131.473 5.32402 131.731 5.95402C131.851 6.23602 131.929 6.55102 131.965 6.89902C132.001 7.24702 132.019 7.60102 132.019 7.96102V14H130.84V11.561L131.182 11.705C130.852 12.539 130.339 13.175 129.643 13.613C128.947 14.051 128.113 14.27 127.141 14.27ZM127.294 13.127C127.912 13.127 128.452 13.016 128.914 12.794C129.376 12.572 129.748 12.269 130.03 11.885C130.312 11.495 130.495 11.057 130.579 10.571C130.651 10.259 130.69 9.91702 130.696 9.54502C130.702 9.16702 130.705 8.88502 130.705 8.69902L131.209 8.96002C130.759 9.02002 130.27 9.08002 129.742 9.14002C129.22 9.20002 128.704 9.26902 128.194 9.34702C127.69 9.42502 127.234 9.51802 126.826 9.62602C126.55 9.70402 126.283 9.81502 126.025 9.95902C125.767 10.097 125.554 10.283 125.386 10.517C125.224 10.751 125.143 11.042 125.143 11.39C125.143 11.672 125.212 11.945 125.35 12.209C125.494 12.473 125.722 12.692 126.034 12.866C126.352 13.04 126.772 13.127 127.294 13.127Z" fill="#CDCDCD"/>
<path d="M138.259 14.279C137.353 14.273 136.576 14.075 135.928 13.685C135.28 13.295 134.776 12.713 134.416 11.939C134.062 11.165 133.87 10.199 133.84 9.04102C133.822 8.53102 133.834 7.97602 133.876 7.37602C133.918 6.77002 133.984 6.19402 134.074 5.64802C134.164 5.10202 134.272 4.65802 134.398 4.31602C134.554 3.87202 134.776 3.45802 135.064 3.07402C135.358 2.68402 135.697 2.36602 136.081 2.12002C136.453 1.86802 136.873 1.67302 137.341 1.53502C137.815 1.39102 138.307 1.28002 138.817 1.20202C139.333 1.12402 139.843 1.05502 140.347 0.995019C140.857 0.935019 141.328 0.860019 141.76 0.77002L141.904 1.96702C141.574 2.03302 141.184 2.09302 140.734 2.14702C140.284 2.20102 139.813 2.26702 139.321 2.34502C138.829 2.41702 138.358 2.51602 137.908 2.64202C137.458 2.76802 137.074 2.93302 136.756 3.13702C136.27 3.43102 135.895 3.87502 135.631 4.46902C135.373 5.06302 135.214 5.74402 135.154 6.51202C135.526 5.93002 136.018 5.49202 136.63 5.19802C137.248 4.90402 137.917 4.75702 138.637 4.75702C139.513 4.75702 140.266 4.95802 140.896 5.36002C141.532 5.76202 142.021 6.32002 142.363 7.03402C142.705 7.74802 142.876 8.56702 142.876 9.49102C142.876 10.457 142.687 11.3 142.309 12.02C141.937 12.74 141.406 13.298 140.716 13.694C140.026 14.084 139.207 14.279 138.259 14.279ZM138.358 13.01C139.378 13.01 140.152 12.692 140.68 12.056C141.214 11.42 141.481 10.574 141.481 9.51802C141.481 8.43802 141.205 7.58602 140.653 6.96202C140.107 6.33802 139.336 6.02602 138.34 6.02602C137.344 6.02602 136.579 6.33802 136.045 6.96202C135.511 7.58602 135.244 8.43802 135.244 9.51802C135.244 10.598 135.511 11.45 136.045 12.074C136.579 12.698 137.35 13.01 138.358 13.01Z" fill="#CDCDCD"/>
<path d="M148.915 14.27C147.949 14.27 147.124 14.051 146.44 13.613C145.756 13.175 145.231 12.569 144.865 11.795C144.499 11.021 144.316 10.133 144.316 9.13102C144.316 8.11102 144.502 7.21702 144.874 6.44902C145.246 5.68102 145.774 5.08402 146.458 4.65802C147.148 4.22602 147.967 4.01002 148.915 4.01002C149.887 4.01002 150.715 4.22902 151.399 4.66702C152.089 5.09902 152.614 5.70202 152.974 6.47602C153.34 7.24402 153.523 8.12902 153.523 9.13102C153.523 10.151 153.34 11.048 152.974 11.822C152.608 12.59 152.08 13.19 151.39 13.622C150.7 14.054 149.875 14.27 148.915 14.27ZM148.915 13.001C149.995 13.001 150.799 12.644 151.327 11.93C151.855 11.21 152.119 10.277 152.119 9.13102C152.119 7.95502 151.852 7.01902 151.318 6.32302C150.79 5.62702 149.989 5.27902 148.915 5.27902C148.189 5.27902 147.589 5.44402 147.115 5.77402C146.647 6.09802 146.296 6.55102 146.062 7.13302C145.834 7.70902 145.72 8.37502 145.72 9.13102C145.72 10.301 145.99 11.24 146.53 11.948C147.07 12.65 147.865 13.001 148.915 13.001Z" fill="#CDCDCD"/>
<path d="M157.917 14V5.50402H154.47V4.28002H162.687V5.50402H159.24V14H157.917Z" fill="#CDCDCD"/>
<path d="M164.394 14L164.403 4.28002H165.735V8.96002L170.073 4.28002H171.837L167.283 9.14002L172.431 14H170.505L165.735 9.32002V14H164.394Z" fill="#CDCDCD"/>
<path d="M176.113 14.27C175.381 14.27 174.766 14.138 174.268 13.874C173.776 13.61 173.407 13.259 173.161 12.821C172.915 12.383 172.792 11.906 172.792 11.39C172.792 10.862 172.897 10.412 173.107 10.04C173.323 9.66202 173.614 9.35302 173.98 9.11302C174.352 8.87302 174.781 8.69002 175.267 8.56402C175.759 8.44402 176.302 8.33902 176.896 8.24902C177.496 8.15302 178.081 8.07202 178.651 8.00602C179.227 7.93402 179.731 7.86502 180.163 7.79902L179.695 8.08702C179.713 7.12702 179.527 6.41602 179.137 5.95402C178.747 5.49202 178.069 5.26102 177.103 5.26102C176.437 5.26102 175.873 5.41102 175.411 5.71102C174.955 6.01102 174.634 6.48502 174.448 7.13302L173.161 6.75502C173.383 5.88502 173.83 5.21002 174.502 4.73002C175.174 4.25002 176.047 4.01002 177.121 4.01002C178.009 4.01002 178.762 4.17802 179.38 4.51402C180.004 4.84402 180.445 5.32402 180.703 5.95402C180.823 6.23602 180.901 6.55102 180.937 6.89902C180.973 7.24702 180.991 7.60102 180.991 7.96102V14H179.812V11.561L180.154 11.705C179.824 12.539 179.311 13.175 178.615 13.613C177.919 14.051 177.085 14.27 176.113 14.27ZM176.266 13.127C176.884 13.127 177.424 13.016 177.886 12.794C178.348 12.572 178.72 12.269 179.002 11.885C179.284 11.495 179.467 11.057 179.551 10.571C179.623 10.259 179.662 9.91702 179.668 9.54502C179.674 9.16702 179.677 8.88502 179.677 8.69902L180.181 8.96002C179.731 9.02002 179.242 9.08002 178.714 9.14002C178.192 9.20002 177.676 9.26902 177.166 9.34702C176.662 9.42502 176.206 9.51802 175.798 9.62602C175.522 9.70402 175.255 9.81502 174.997 9.95902C174.739 10.097 174.526 10.283 174.358 10.517C174.196 10.751 174.115 11.042 174.115 11.39C174.115 11.672 174.184 11.945 174.322 12.209C174.466 12.473 174.694 12.692 175.006 12.866C175.324 13.04 175.744 13.127 176.266 13.127Z" fill="#CDCDCD"/>
</svg>
