<svg width="32" height="32" viewBox="0 0 32 32" fill="none" xmlns="http://www.w3.org/2000/svg">
<path d="M23.5296 16.4113C23.1831 16.4113 22.9013 16.6918 22.9013 17.0383C22.9013 17.3856 23.1831 17.6654 23.5296 17.6654H30.7459V28.3653H1.25343V17.6659H8.7818C9.13027 17.6659 9.41082 17.3861 9.41082 17.0389C9.41082 16.6923 9.13098 16.4118 8.7818 16.4118H0V29.6217H32V16.4113H23.5296Z" fill="white"/>
<path d="M15.2795 25.7942C15.4242 25.9396 15.6164 26.0138 15.8088 26.0138C15.8132 26.0138 15.8164 26.0106 15.8216 26.0106C15.8267 26.0106 15.8304 26.0138 15.8343 26.0138C16.0285 26.0138 16.2209 25.9377 16.3642 25.7942L20.5549 21.6048C20.8481 21.3109 20.8481 20.8362 20.5549 20.5431C20.2611 20.2505 19.787 20.2505 19.4932 20.5431L16.5857 23.4518V3.12825C16.5857 2.71452 16.25 2.37811 15.8343 2.37811C15.4212 2.37811 15.0835 2.71452 15.0835 3.12825V23.4769L12.1507 20.5436C11.8575 20.251 11.3828 20.251 11.0895 20.5436C10.7963 20.8367 10.7963 21.3115 11.0895 21.6053L15.2795 25.7942Z" fill="white"/>
</svg>
