<svg width="17" height="21" viewBox="0 0 17 21" fill="none" xmlns="http://www.w3.org/2000/svg">
<path d="M8.5 0C3.81306 0 0 3.76991 0 8.4038C0 10.3159 0.633783 12.1166 1.83286 13.6114C3.38544 15.5468 7.90038 20.1421 8.09179 20.3367L8.49994 20.7519L8.90816 20.3368C9.09968 20.142 13.616 15.5457 15.1688 13.6097C16.3668 12.1161 17 10.316 17 8.4038C17 3.76991 13.1869 0 8.5 0ZM14.2766 12.9102C13.0266 14.4687 9.66953 17.9356 8.5 19.1347C7.33059 17.9356 3.97476 14.4697 2.72501 12.9118C1.68722 11.6181 1.13867 10.0593 1.13867 8.4038C1.13867 4.39066 4.44093 1.12578 8.5 1.12578C12.559 1.12578 15.8613 4.39066 15.8613 8.4038C15.8613 10.0594 15.3133 11.6177 14.2766 12.9102Z" fill="#1F1F1F"/>
<path d="M8.49995 3.33594C5.72558 3.33594 3.46851 5.56746 3.46851 8.31043C3.46851 11.0534 5.72563 13.2849 8.49995 13.2849C11.2743 13.2849 13.5314 11.0533 13.5314 8.31043C13.5314 5.56752 11.2743 3.33594 8.49995 3.33594ZM8.49995 12.1591C6.35344 12.1591 4.60718 10.4326 4.60718 8.31043C4.60718 6.18822 6.3535 4.46172 8.49995 4.46172C10.6464 4.46172 12.3927 6.18828 12.3927 8.31043C12.3927 10.4326 10.6465 12.1591 8.49995 12.1591Z" fill="#1F1F1F"/>
</svg>
