<svg width="40" height="40" viewBox="0 0 40 40" fill="none" xmlns="http://www.w3.org/2000/svg">
<path d="M39.1028 31.6112L32.9257 25.4333C31.6954 24.208 29.6576 24.2455 28.3843 25.5188L25.2725 28.6307C25.076 28.5219 24.8724 28.4087 24.6584 28.2887C22.6933 27.1998 20.0033 25.7074 17.1726 22.8747C14.334 20.0363 12.8396 17.342 11.7477 15.3755C11.6318 15.167 11.5217 14.9664 11.4129 14.7756L13.5016 12.6897L14.5283 11.6616C15.8038 10.3861 15.8391 8.34892 14.611 7.12025L8.43369 0.941521C7.2064 -0.285773 5.16781 -0.248456 3.89235 1.02701L2.15131 2.77792L2.19929 2.82531C1.61565 3.57006 1.12738 4.42932 0.764877 5.35571C0.430017 6.23749 0.221519 7.07918 0.126155 7.92205C-0.689277 14.6844 2.40068 20.8643 10.7868 29.2512C22.3788 40.8424 31.7209 39.967 32.1237 39.9239C33.0021 39.8193 33.8428 39.6094 34.6979 39.2773C35.6164 38.9183 36.4751 38.4315 37.219 37.8492L37.2571 37.8824L39.0209 36.1553C40.2936 34.8801 40.3303 32.8429 39.1028 31.6112ZM37.6487 34.7819L36.8713 35.5579L36.5617 35.8554C36.0743 36.3267 35.2304 36.9887 33.9982 37.4707C33.2986 37.74 32.609 37.913 31.9073 37.9965C31.819 38.005 23.0323 38.7547 12.1574 27.8806C2.91087 18.6344 1.42907 13.3065 2.05022 8.14615C2.12801 7.46221 2.29959 6.77393 2.57383 6.05466C3.05993 4.81532 3.72136 3.97224 4.1891 3.48397L5.26377 2.39864C5.78166 1.87937 6.58939 1.83968 7.06286 2.31315L13.24 8.49029C13.7127 8.96435 13.6754 9.77208 13.1567 10.2929L8.98495 14.4605L9.36996 15.1085C9.58398 15.4696 9.81025 15.8744 10.0519 16.3141C11.1994 18.3837 12.7695 21.2166 15.8016 24.2459C18.8258 27.2717 21.6545 28.8404 23.7178 29.9849C24.1636 30.2315 24.5708 30.4584 24.936 30.676L25.5854 31.061L29.7544 26.8906C30.2744 26.3727 31.0849 26.3344 31.5584 26.8065L37.7328 32.9823C38.2049 33.4555 38.1673 34.2633 37.6487 34.7819Z" fill="#F4F4F4"/>
</svg>
