<?xml version="1.0" standalone="no"?><svg xmlns:xlink="http://www.w3.org/1999/xlink" xmlns="http://www.w3.org/2000/svg" viewBox="0 0 1600 757.8971182941659" preserveAspectRatio="xMaxYMax slice"><g transform="scale(1.1311897287972625)"><rect x="0" y="0" width="1414.4444444444443" height="670" fill="none"/><polygon points="1135.28,93.06 1172.5,130.28 1135.28,130.28" fill="#ab4e09"/><polygon points="614.17,167.5 651.39,167.5 651.39,204.72" fill="#272727"/><polygon points="800.28,167.5 800.28,204.72 763.06,204.72" fill="#232323"/><polygon points="1246.94,167.5 1246.94,204.72 1209.72,204.72" fill="#2c2c2c"/><polygon points="576.94,241.94 576.94,279.15999999999997 539.72,279.15999999999997" fill="#202020"/><polygon points="614.17,241.94 651.39,279.15999999999997 614.17,279.15999999999997" fill="#2e2e2e"/><polygon points="763.06,241.94 800.28,279.15999999999997 763.06,279.15999999999997" fill="#2c2c2c"/><polygon points="837.5,241.94 874.72,241.94 874.72,279.15999999999997" fill="#2a2a2a"/><polygon points="986.39,241.94 1023.61,241.94 1023.61,279.15999999999997" fill="#232323"/><polygon points="1060.83,241.94 1098.05,279.15999999999997 1060.83,279.15999999999997" fill="#262626"/><polygon points="1135.28,241.94 1172.5,241.94 1172.5,279.15999999999997" fill="#99480b"/><polygon points="316.39,316.39 353.61,353.61 316.39,353.61" fill="#2b2b2b"/><polygon points="428.04999999999995,316.39 428.04999999999995,353.61 390.83,353.61" fill="#222222"/><polygon points="465.28,316.39 502.5,353.61 465.28,353.61" fill="#2e2e2e"/><polygon points="576.94,316.39 576.94,353.61 539.72,353.61" fill="transparent"/><polygon points="651.39,316.39 651.39,353.61 614.17,353.61" fill="#de6104"/><polygon points="688.61,316.39 725.83,316.39 688.61,353.61" fill="#1f1f1f"/><polygon points="800.28,316.39 800.28,353.61 763.06,353.61" fill="#1d1d1d"/><polygon points="837.5,316.39 874.72,316.39 874.72,353.61" fill="#e46303"/><polygon points="911.94,316.39 949.1600000000001,316.39 949.1600000000001,353.61" fill="#c75906"/><polygon points="1060.83,316.39 1098.05,353.61 1060.83,353.61" fill="#e46303"/><polygon points="1135.28,316.39 1172.5,316.39 1135.28,353.61" fill="#c15607"/><polygon points="93.06,390.83 130.28,390.83 130.28,428.04999999999995" fill="#e76403"/><polygon points="241.94,390.83 279.15999999999997,390.83 279.15999999999997,428.04999999999995" fill="#c55806"/><polygon points="390.83,390.83 428.04999999999995,390.83 428.04999999999995,428.04999999999995" fill="#bd5507"/><polygon points="502.5,390.83 502.5,428.04999999999995 465.28,428.04999999999995" fill="#b95408"/><polygon points="576.94,390.83 576.94,428.04999999999995 539.72,428.04999999999995" fill="#492b15"/><polygon points="614.17,390.83 651.39,390.83 614.17,428.04999999999995" fill="#de6104"/><polygon points="688.61,390.83 725.83,428.04999999999995 688.61,428.04999999999995" fill="#542f13"/><polygon points="763.06,390.83 800.28,390.83 763.06,428.04999999999995" fill="#803f0e"/><polygon points="837.5,390.83 874.72,390.83 837.5,428.04999999999995" fill="#242424"/><polygon points="911.94,390.83 949.1600000000001,428.04999999999995 911.94,428.04999999999995" fill="#e96502"/><polygon points="1023.61,390.83 1023.61,428.04999999999995 986.39,428.04999999999995" fill="#201c19"/><polygon points="316.39,465.28 353.61,465.28 353.61,502.5" fill="#242424"/><polygon points="390.83,465.28 428.04999999999995,465.28 390.83,502.5" fill="#3e2716"/><polygon points="465.28,465.28 502.5,465.28 502.5,502.5" fill="#dd6004"/><polygon points="539.72,465.28 576.94,502.5 539.72,502.5" fill="#212121"/><polygon points="614.17,465.28 651.39,465.28 614.17,502.5" fill="#3c2616"/><polygon points="688.61,465.28 725.83,502.5 688.61,502.5" fill="#212121"/><polygon points="800.28,465.28 800.28,502.5 763.06,502.5" fill="#242424"/><polygon points="837.5,465.28 874.72,502.5 837.5,502.5" fill="#1b1b1b"/><polygon points="911.94,465.28 949.1600000000001,465.28 911.94,502.5" fill="#87420e"/><polygon points="1098.05,465.28 1098.05,502.5 1060.83,502.5" fill="#dc6004"/><polygon points="1172.5,465.28 1172.5,502.5 1135.28,502.5" fill="#2e2e2e"/><polygon points="1209.72,465.28 1246.94,465.28 1209.72,502.5" fill="#1b1b1b"/><polygon points="241.94,539.72 279.15999999999997,539.72 241.94,576.94" fill="#302217"/><polygon points="465.28,539.72 502.5,539.72 465.28,576.94" fill="#e26203"/><polygon points="539.72,539.72 576.94,539.72 576.94,576.94" fill="#292018"/><polygon points="800.28,539.72 800.28,576.94 763.06,576.94" fill="#292929"/><polygon points="837.5,539.72 874.72,576.94 837.5,576.94" fill="#2b2b2b"/><polygon points="614.17,614.17 651.39,614.17 651.39,651.39" fill="#2b2b2b"/><polygon points="949.1600000000001,614.17 949.1600000000001,651.39 911.94,651.39" fill="#e36303"/></g></svg>