<svg width="169" height="36" viewBox="0 0 169 36" fill="none" xmlns="http://www.w3.org/2000/svg">
<path d="M14.424 35.72C11.64 35.72 9.192 35.16 7.08 34.04C4.968 32.904 3.32 31.312 2.136 29.264C0.952 27.216 0.36 24.808 0.36 22.04V0.487998L6.984 0.439999V21.992C6.984 23.128 7.176 24.16 7.56 25.088C7.944 26.016 8.472 26.816 9.144 27.488C9.832 28.16 10.624 28.68 11.52 29.048C12.432 29.4 13.4 29.576 14.424 29.576C15.48 29.576 16.456 29.392 17.352 29.024C18.264 28.656 19.056 28.136 19.728 27.464C20.4 26.792 20.92 25.992 21.288 25.064C21.672 24.136 21.864 23.112 21.864 21.992V0.439999H28.488V22.04C28.488 24.808 27.896 27.216 26.712 29.264C25.528 31.312 23.88 32.904 21.768 34.04C19.656 35.16 17.208 35.72 14.424 35.72Z" fill="#EC2C02"/>
<path d="M50.0201 35C48.2281 35.336 46.4681 35.48 44.7401 35.432C43.0281 35.4 41.4921 35.104 40.1321 34.544C38.7881 33.968 37.7641 33.048 37.0601 31.784C36.4201 30.6 36.0841 29.4 36.0521 28.184C36.0201 26.952 36.0041 25.56 36.0041 24.008V1.88H42.5321V23.624C42.5321 24.632 42.5401 25.544 42.5561 26.36C42.5881 27.16 42.7561 27.8 43.0601 28.28C43.6361 29.192 44.5561 29.688 45.8201 29.768C47.0841 29.848 48.4841 29.784 50.0201 29.576V35ZM31.5881 14.12V9.08H50.0201V14.12H31.5881ZM65.718 35.72C63.062 35.72 60.718 35.152 58.686 34.016C56.67 32.864 55.086 31.288 53.934 29.288C52.798 27.272 52.23 24.968 52.23 22.376C52.23 19.544 52.79 17.08 53.91 14.984C55.03 12.888 56.574 11.264 58.542 10.112C60.51 8.944 62.774 8.36 65.334 8.36C68.054 8.36 70.366 9 72.27 10.28C74.174 11.56 75.582 13.36 76.494 15.68C77.406 18 77.726 20.728 77.454 23.864H70.998V21.464C70.998 18.824 70.574 16.928 69.726 15.776C68.894 14.608 67.526 14.024 65.622 14.024C63.398 14.024 61.758 14.704 60.702 16.064C59.662 17.408 59.142 19.4 59.142 22.04C59.142 24.456 59.662 26.328 60.702 27.656C61.758 28.968 63.302 29.624 65.334 29.624C66.614 29.624 67.71 29.344 68.622 28.784C69.534 28.224 70.23 27.416 70.71 26.36L77.238 28.232C76.262 30.6 74.718 32.44 72.606 33.752C70.51 35.064 68.214 35.72 65.718 35.72ZM57.126 23.864V19.016H74.31V23.864H57.126ZM82.1531 35V9.08H87.9131V15.416L87.2891 14.6C87.6251 13.704 88.0731 12.888 88.6331 12.152C89.1931 11.416 89.8811 10.808 90.6971 10.328C91.3211 9.944 92.0011 9.648 92.7371 9.44C93.4731 9.216 94.2331 9.08 95.0171 9.032C95.8011 8.968 96.5851 8.984 97.3691 9.08V15.176C96.6491 14.952 95.8091 14.88 94.8491 14.96C93.9051 15.024 93.0491 15.24 92.2811 15.608C91.5131 15.96 90.8651 16.432 90.3371 17.024C89.8091 17.6 89.4091 18.288 89.1371 19.088C88.8651 19.872 88.7291 20.76 88.7291 21.752V35H82.1531ZM132.414 35V19.688C132.414 17.976 132.006 16.648 131.19 15.704C130.39 14.744 129.278 14.264 127.854 14.264C126.942 14.264 126.15 14.48 125.478 14.912C124.806 15.328 124.278 15.92 123.894 16.688C123.526 17.44 123.342 18.312 123.342 19.304L120.606 17.48C120.606 15.704 121.022 14.136 121.854 12.776C122.702 11.416 123.83 10.36 125.238 9.608C126.662 8.84 128.238 8.456 129.966 8.456C132.926 8.456 135.158 9.336 136.662 11.096C138.182 12.84 138.942 15.128 138.942 17.96V35H132.414ZM101.166 35V9.08H106.926V17.672H107.742V35H101.166ZM116.814 35V19.688C116.814 17.976 116.406 16.648 115.59 15.704C114.79 14.744 113.678 14.264 112.254 14.264C110.894 14.264 109.798 14.736 108.966 15.68C108.15 16.608 107.742 17.816 107.742 19.304L105.006 17.384C105.006 15.688 105.43 14.168 106.278 12.824C107.126 11.48 108.262 10.416 109.686 9.632C111.126 8.848 112.734 8.456 114.51 8.456C116.542 8.456 118.206 8.888 119.502 9.752C120.814 10.616 121.782 11.768 122.406 13.208C123.03 14.648 123.342 16.232 123.342 17.96V35H116.814ZM155.658 35.72C153.05 35.72 150.762 35.136 148.794 33.968C146.826 32.8 145.29 31.192 144.186 29.144C143.098 27.08 142.554 24.712 142.554 22.04C142.554 19.336 143.114 16.96 144.234 14.912C145.354 12.848 146.898 11.24 148.866 10.088C150.834 8.936 153.098 8.36 155.658 8.36C158.266 8.36 160.554 8.944 162.522 10.112C164.506 11.28 166.05 12.896 167.154 14.96C168.258 17.008 168.81 19.368 168.81 22.04C168.81 24.728 168.25 27.104 167.13 29.168C166.026 31.216 164.482 32.824 162.498 33.992C160.53 35.144 158.25 35.72 155.658 35.72ZM155.658 29.624C157.754 29.624 159.314 28.92 160.338 27.512C161.378 26.088 161.898 24.264 161.898 22.04C161.898 19.736 161.37 17.896 160.314 16.52C159.274 15.144 157.722 14.456 155.658 14.456C154.234 14.456 153.066 14.776 152.154 15.416C151.242 16.056 150.562 16.944 150.114 18.08C149.682 19.216 149.466 20.536 149.466 22.04C149.466 24.36 149.986 26.208 151.026 27.584C152.082 28.944 153.626 29.624 155.658 29.624Z" fill="#D8D8D8"/>
</svg>
