<?xml version="1.0" encoding="UTF-8" standalone="no"?>
<svg
   xmlns:dc="http://purl.org/dc/elements/1.1/"
   xmlns:cc="http://creativecommons.org/ns#"
   xmlns:rdf="http://www.w3.org/1999/02/22-rdf-syntax-ns#"
   xmlns:svg="http://www.w3.org/2000/svg"
   xmlns="http://www.w3.org/2000/svg"
   xmlns:xlink="http://www.w3.org/1999/xlink"
   viewBox="0 0 198.14163 135.01179"
   id="svg454"
   height="135.0118"
   width="198.14163"
   version="1.1">
  <metadata
     id="metadata460">
    <rdf:RDF>
      <cc:Work
         rdf:about="">
        <dc:format>image/svg+xml</dc:format>
        <dc:type
           rdf:resource="http://purl.org/dc/dcmitype/StillImage" />
        <dc:title></dc:title>
      </cc:Work>
    </rdf:RDF>
  </metadata>
  <defs
     id="defs458" />
  <g
     transform="translate(-17.95966,-12.78629)"
     id="Layer1000">
    <g
       transform="matrix(0.34950348,0,0,0.34950348,12.661809,5.3800985)"
       id="g493">
      <g
         id="Layer1001"
         transform="translate(-2.1010799,-206.60619)">
        <defs
           id="defs408">
          <linearGradient
             id="grad1">
            <stop
               offset="0.0000%"
               stop-color="#868789"
               stop-opacity="1.0000"
               id="stop400" />
            <stop
               offset="47.0000%"
               stop-color="#868789"
               stop-opacity="1.0000"
               id="stop402" />
            <stop
               offset="100.0000%"
               stop-color="#c5c7c8"
               stop-opacity="1.0000"
               id="stop404" />
          </linearGradient>
          <linearGradient
             xlink:href="#grad1"
             id="grad2"
             x1="183.90231"
             y1="417.42239"
             x2="183.90231"
             y2="573.95508"
             gradientTransform="scale(1.2256599,0.81588702)"
             gradientUnits="userSpaceOnUse" />
        </defs>
        <path
           d="m 412.2803,360.9105 c 5.138,-5.1395 6.1071,-13.8978 3.7834,-20.341 -12.3583,5.6754 -32.4541,11.6086 -64.4607,19.2175 -16.6721,3.9635 -112.6451,22.6099 -126.2013,44.0383 23.5524,23.5524 32.2566,32.3295 59.0721,59.1442 7.0754,7.084 18.6644,7.084 25.7429,0 z"
           style="fill:url(#grad2)"
           id="path410" />
        <defs
           id="defs420">
          <linearGradient
             id="grad3">
            <stop
               offset="0.0000%"
               stop-color="#e7441c"
               stop-opacity="1.0000"
               id="stop412" />
            <stop
               offset="47.0000%"
               stop-color="#e7441c"
               stop-opacity="1.0000"
               id="stop414" />
            <stop
               offset="100.0000%"
               stop-color="#f07c00"
               stop-opacity="1.0000"
               id="stop416" />
          </linearGradient>
          <linearGradient
             xlink:href="#grad3"
             id="grad4"
             x1="154.05452"
             y1="261.87552"
             x2="154.05452"
             y2="428.11871"
             gradientTransform="scale(1.1496015,0.86986667)"
             gradientUnits="userSpaceOnUse" />
        </defs>
        <path
           d="m 368.2147,291.1027 -57.998,-57.9964 c -3.5412,-3.5405 -8.2059,-5.3095 -12.8714,-5.3095 -4.6687,0 -9.3342,1.769 -12.8715,5.3095 L 182.4125,335.1652 c -7.0816,7.0809 -7.0816,18.6675 0,25.7453 l 11.4934,11.4957 c 13.8053,-7.3755 31.1989,-17.3278 57.7895,-27.7854 16.5631,-6.5145 90.7395,-29.5114 116.5193,-53.5181 z"
           style="fill:url(#grad4)"
           id="path422" />
        <defs
           id="defs432">
          <linearGradient
             id="grad5">
            <stop
               offset="0.0000%"
               stop-color="#e7441c"
               stop-opacity="1.0000"
               id="stop424" />
            <stop
               offset="47.0000%"
               stop-color="#e7441c"
               stop-opacity="1.0000"
               id="stop426" />
            <stop
               offset="100.0000%"
               stop-color="#f07c00"
               stop-opacity="1.0000"
               id="stop428" />
          </linearGradient>
          <linearGradient
             xlink:href="#grad5"
             id="grad6"
             x1="133.96915"
             y1="332.36859"
             x2="133.96915"
             y2="518.19171"
             gradientTransform="scale(1.2694475,0.78774425)"
             gradientUnits="userSpaceOnUse" />
        </defs>
        <path
           d="m 345.7076,261.9987 c 0,0 17.7884,0.7335 25.8658,6.9125 3.2591,2.4928 5.0943,5.934 3.2287,10.4473 -11.3208,27.3901 -104.4376,56.6374 -123.3981,64.094 -59.9659,23.5837 -75.6699,37.1907 -80.3339,46.7949 -9.4907,19.5438 51.4753,17.9223 51.4753,17.9223 0,0 -17.7887,-0.7336 -25.8664,-6.9126 -3.2584,-2.493 -4.9363,-5.8721 -3.2281,-10.4473 0.2234,-0.598 0.505,-1.2168 0.8481,-1.8564 12.0229,-22.4121 52.3204,-38.8628 75.3508,-46.8728 24.5686,-8.5489 45.5006,-16.2734 63.2453,-23.2519 59.9686,-23.5845 67.5027,-30.7646 72.1663,-40.3691 9.4898,-19.5434 -59.3538,-16.4609 -59.3538,-16.4609 z"
           style="fill:url(#grad6)"
           id="path434" />
        <defs
           id="defs444">
          <linearGradient
             id="grad7">
            <stop
               offset="0.0000%"
               stop-color="#868789"
               stop-opacity="1.0000"
               id="stop436" />
            <stop
               offset="47.0000%"
               stop-color="#868789"
               stop-opacity="1.0000"
               id="stop438" />
            <stop
               offset="100.0000%"
               stop-color="#c5c7c8"
               stop-opacity="1.0000"
               id="stop440" />
          </linearGradient>
          <linearGradient
             xlink:href="#grad7"
             id="grad8"
             x1="137.49806"
             y1="451.57996"
             x2="137.49806"
             y2="611.83051"
             gradientTransform="scale(1.4523049,0.68856067)"
             gradientUnits="userSpaceOnUse" />
        </defs>
        <path
           d="m 240.0332,418.4663 c -8.1062,-1.7129 -18.6701,-4.7853 -13.7498,-13.125 12.7413,-21.5823 108.5573,-39.6718 125.3202,-43.6555 53.0113,-12.6037 74.5494,-22.4103 79.5984,-29.8955 10.2736,-15.2318 -47.7313,-20.8501 -47.7313,-20.8501 0,0 14.8064,2.7328 20.8325,8.8674 2.4311,2.4766 3.4333,5.5035 1.4591,9.1325 -0.2587,0.4734 -0.5693,0.9581 -0.9315,1.4529 -12.735,17.3309 -48.4319,26.3043 -68.6672,30.2678 -21.5873,4.2299 -40.0303,8.206 -55.7177,11.9348 -53.0151,12.6024 -74.5544,22.409 -79.6022,29.8942 -7.8122,11.5838 25.9963,16.7288 42.0019,18.7926 z"
           style="fill:url(#grad8)"
           id="path446" />
      </g>
      <path
         d="m 26.80832,403.76641 v -15.9474 h -8.9456 v 15.9474 h -2.3402 v -18.0805 h 13.6264 v 18.0805 z m 8.6587,0 v -18.0805 h 8.3475 c 0.8668,0 1.6296,0.1429 2.2884,0.4292 0.6588,0.2863 1.205,0.6763 1.6384,1.1707 0.4332,0.4944 0.7586,1.0882 0.9751,1.7821 0.2166,0.6937 0.3252,1.4395 0.3252,2.2371 0,0.8153 -0.0998,1.5653 -0.2994,2.2505 -0.199,0.6851 -0.5113,1.279 -0.936,1.7821 -0.4249,0.5029 -0.9666,0.8975 -1.6253,1.1835 -0.6588,0.2863 -1.4477,0.4294 -2.3664,0.4294 h -6.0072 v 6.8159 z m 2.3403,-15.9474 v 6.9721 h 5.5911 c 1.1789,0 2.0239,-0.3251 2.5353,-0.9754 0.5116,-0.6506 0.7673,-1.4873 0.7673,-2.5107 0,-1.0057 -0.2815,-1.8382 -0.845,-2.4973 -0.5635,-0.659 -1.3825,-0.9887 -2.4576,-0.9887 z m 24.0273,16.2595 c -1.5083,0 -2.7998,-0.2426 -3.8747,-0.7282 -1.0749,-0.4859 -1.9505,-1.1492 -2.6265,-1.9902 -0.6761,-0.8413 -1.1744,-1.834 -1.4953,-2.9789 -0.3206,-1.1447 -0.4811,-2.3672 -0.4811,-3.6681 v -0.7024 c 0,-1.2314 0.1951,-2.376 0.5851,-3.4339 0.3903,-1.0581 0.9493,-1.9729 1.6776,-2.7448 0.7279,-0.7716 1.6166,-1.3745 2.6654,-1.8079 1.0488,-0.4337 2.232,-0.6506 3.5495,-0.6506 1.3176,0 2.501,0.2169 3.5496,0.6506 1.0491,0.4334 1.9374,1.0363 2.6654,1.8079 0.7282,0.7719 1.2872,1.6867 1.6775,2.7448 0.3901,1.0579 0.5851,2.2025 0.5851,3.4339 v 0.7024 c 0,1.3009 -0.1604,2.5234 -0.481,3.6681 -0.3209,1.1449 -0.8193,2.1376 -1.4953,2.9789 -0.6761,0.841 -1.5517,1.5043 -2.6263,1.9902 -1.0752,0.4856 -2.3667,0.7282 -3.875,0.7282 z m 0,-16.5716 c -0.9708,0 -1.8289,0.1735 -2.5744,0.5204 -0.7455,0.3467 -1.374,0.8193 -1.8856,1.4091 -0.5111,0.5897 -0.9011,1.2833 -1.1699,2.0855 -0.269,0.7979 -0.4031,1.639 -0.4031,2.5279 v 0.5984 c 0,0.9885 0.1168,1.925 0.351,2.8009 0.2341,0.8759 0.5938,1.6521 1.0794,2.3196 0.4853,0.6679 1.1049,1.2011 1.8592,1.5914 0.7541,0.39 1.6512,0.5854 2.6913,0.5854 1.0751,0 1.9981,-0.1866 2.7697,-0.5596 0.7713,-0.3728 1.4043,-0.8887 1.8984,-1.5392 0.494,-0.6503 0.8537,-1.4176 1.0791,-2.3066 0.2254,-0.8844 0.3382,-1.8513 0.3382,-2.8919 v -0.5984 c 0,-0.8889 -0.1344,-1.73 -0.4031,-2.5279 -0.269,-0.8022 -0.6588,-1.4958 -1.1702,-2.0855 -0.5116,-0.5898 -1.1446,-1.0624 -1.8986,-1.4091 -0.7543,-0.3469 -1.6078,-0.5204 -2.5614,-0.5204 z m 26.1074,16.2595 v -14.2823 l -9.4915,14.2823 h -2.3664 v -18.0805 h 2.3403 v 14.3082 l 9.5176,-14.3082 h 2.3406 v 18.0805 z m 19.5026,-5.021 c 0,0.9715 -0.1604,1.7907 -0.4813,2.4585 -0.3206,0.6679 -0.7628,1.2183 -1.326,1.652 -0.5636,0.4335 -1.2223,0.7458 -1.9764,0.9366 -0.7543,0.1908 -1.5735,0.286 -2.4573,0.286 -1.1792,0 -2.1932,-0.1993 -3.0427,-0.5984 -0.8496,-0.3988 -1.6036,-1.1012 -2.2623,-2.107 l 1.8462,-1.2228 c 0.4507,0.659 0.962,1.1231 1.5341,1.3918 0.5723,0.269 1.2656,0.4034 2.0806,0.4034 1.1095,0 2.0197,-0.243 2.7303,-0.7286 0.711,-0.4855 1.0664,-1.3181 1.0664,-2.4976 0,-0.5896 -0.104,-1.0882 -0.3121,-1.4958 -0.208,-0.4073 -0.4941,-0.7413 -0.858,-1.0015 -0.3643,-0.2602 -0.7977,-0.451 -1.3006,-0.5723 -0.5025,-0.1213 -1.0485,-0.1823 -1.6381,-0.1823 h -1.3521 v -2.0812 h 1.4303 c 0.5721,0 1.0659,-0.0952 1.4823,-0.286 0.4158,-0.1907 0.7667,-0.4379 1.053,-0.7327 0.2861,-0.2948 0.4984,-0.6288 0.637,-0.993 0.1389,-0.3643 0.2081,-0.724 0.2081,-1.0709 0,-0.9409 -0.2818,-1.6433 -0.8451,-2.1031 -0.5635,-0.4637 -1.2787,-0.6936 -2.1455,-0.6936 -0.7801,0 -1.4562,0.1432 -2.0282,0.4292 -0.572,0.2863 -1.0664,0.7327 -1.4825,1.3399 l -1.8462,-1.2229 c 0.6588,-0.9972 1.4346,-1.6951 2.3272,-2.0897 0.8929,-0.3945 1.9378,-0.5899 3.1337,-0.5899 0.7455,0 1.4346,0.1129 2.0676,0.3382 0.6327,0.2257 1.1829,0.5465 1.6512,0.9627 0.468,0.4164 0.8323,0.928 1.0922,1.5349 0.2602,0.6069 0.3903,1.2921 0.3903,2.0551 0,0.347 -0.0479,0.7243 -0.1431,1.1319 -0.0956,0.4074 -0.2299,0.8019 -0.4034,1.1835 -0.1732,0.3815 -0.377,0.7327 -0.6111,1.0536 -0.2336,0.3209 -0.4896,0.5681 -0.7671,0.7416 0.3643,0.1386 0.7021,0.3512 1.0142,0.6372 0.3121,0.2863 0.5809,0.6287 0.8062,1.0278 0.2254,0.3989 0.4031,0.8323 0.5332,1.3006 0.1301,0.4683 0.195,0.9365 0.195,1.4048 z m 12.403,-5.4632 c 0.4162,0 0.828,-0.0607 1.2351,-0.182 0.4076,-0.1213 0.7716,-0.2993 1.0925,-0.5335 0.3206,-0.2341 0.5762,-0.5332 0.767,-0.8974 0.1908,-0.3643 0.286,-0.7977 0.286,-1.3008 0,-0.9885 -0.2469,-1.6606 -0.741,-2.016 -0.494,-0.3558 -1.1573,-0.5335 -1.9896,-0.5335 h -4.9929 v 5.4632 z m -4.3429,2.1334 v 6.2175 h 5.5652 c 0.5029,0 0.9491,-0.0434 1.3394,-0.1301 0.39,-0.0865 0.7237,-0.2427 1.0009,-0.468 0.2775,-0.2257 0.4856,-0.5378 0.6242,-0.9366 0.1386,-0.3991 0.2081,-0.902 0.2081,-1.5089 0,-1.0406 -0.2948,-1.8297 -0.8842,-2.3675 -0.5896,-0.5377 -1.4043,-0.8064 -2.4443,-0.8064 z m 8.3999,-1.2487 c 0.8665,0.4334 1.5644,1.0015 2.0934,1.7039 0.5286,0.7024 0.7928,1.6172 0.7928,2.7445 0,0.9193 -0.1602,1.7042 -0.481,2.3545 -0.3206,0.6502 -0.754,1.1837 -1.3,1.5998 -0.5462,0.4165 -1.1789,0.7198 -1.8984,0.9105 -0.7194,0.1908 -1.4867,0.2863 -2.3014,0.2863 h -7.6453 v -18.0805 h 7.255 c 0.7455,0 1.4388,0.0868 2.0803,0.26 0.6418,0.1734 1.1965,0.451 1.6645,0.8325 0.468,0.3815 0.8365,0.8671 1.1052,1.457 0.2688,0.5896 0.4031,1.3008 0.4031,2.1331 0,1.5089 -0.5893,2.7229 -1.7682,3.6422 z m 16.5376,9.9116 c -1.5083,0 -2.7998,-0.2426 -3.8747,-0.7282 -1.0749,-0.4859 -1.9505,-1.1492 -2.6266,-1.9902 -0.676,-0.8413 -1.1744,-1.834 -1.4953,-2.9789 -0.3206,-1.1447 -0.481,-2.3672 -0.481,-3.6681 v -0.7024 c 0,-1.2314 0.195,-2.376 0.5851,-3.4339 0.3903,-1.0581 0.9493,-1.9729 1.6775,-2.7448 0.728,-0.7716 1.6166,-1.3745 2.6654,-1.8079 1.0489,-0.4337 2.232,-0.6506 3.5496,-0.6506 1.3175,0 2.501,0.2169 3.5495,0.6506 1.0491,0.4334 1.9375,1.0363 2.6654,1.8079 0.7283,0.7719 1.2875,1.6867 1.6776,2.7448 0.3903,1.0579 0.5851,2.2025 0.5851,3.4339 v 0.7024 c 0,1.3009 -0.1605,2.5234 -0.4811,3.6681 -0.3209,1.1449 -0.8192,2.1376 -1.4953,2.9789 -0.676,0.841 -1.5516,1.5043 -2.6263,1.9902 -1.0751,0.4856 -2.3666,0.7282 -3.8749,0.7282 z m 0,-16.5716 c -0.9706,0 -1.8289,0.1735 -2.5744,0.5204 -0.7456,0.3467 -1.374,0.8193 -1.8857,1.4091 -0.511,0.5897 -0.9011,1.2833 -1.1698,2.0855 -0.269,0.7979 -0.4031,1.639 -0.4031,2.5279 v 0.5984 c 0,0.9885 0.1171,1.925 0.3509,2.8009 0.2342,0.8759 0.5939,1.6521 1.0795,2.3196 0.4853,0.6679 1.1049,1.2011 1.8592,1.5914 0.754,0.39 1.6512,0.5854 2.6912,0.5854 1.0752,0 1.9982,-0.1866 2.7698,-0.5596 0.7713,-0.3728 1.4042,-0.8887 1.8983,-1.5392 0.4941,-0.6503 0.8538,-1.4176 1.0792,-2.3066 0.2253,-0.8844 0.3381,-1.8513 0.3381,-2.8919 v -0.5984 c 0,-0.8889 -0.1343,-1.73 -0.4031,-2.5279 -0.2687,-0.8022 -0.6587,-1.4958 -1.1701,-2.0855 -0.5114,-0.5898 -1.1443,-1.0624 -1.8984,-1.4091 -0.7543,-0.3469 -1.608,-0.5204 -2.5616,-0.5204 z m 13.5473,19.9797 v -5.8535 c 0.364,0 0.6803,-0.0346 0.9491,-0.1041 0.2687,-0.0691 0.5071,-0.2038 0.7151,-0.403 0.2078,-0.1996 0.3989,-0.4683 0.5721,-0.8065 0.1734,-0.3382 0.3554,-0.7761 0.5462,-1.3139 0.4853,-1.3181 0.7758,-2.6623 0.8711,-4.0322 0.0955,-1.3703 0.1431,-2.8097 0.1431,-4.3186 v -4.9689 h 10.766 v 15.9472 h 1.6903 v 5.8535 h -2.1586 v -3.7202 h -11.9361 v 3.7202 z m 12.2482,-5.8535 v -13.8141 h -6.2149 v 2.8358 c 0,0.9365 -0.0176,1.8774 -0.0522,2.8227 -0.0346,0.9451 -0.1171,1.8817 -0.2472,2.8094 -0.1301,0.9281 -0.3251,1.8428 -0.585,2.7448 -0.2603,0.9017 -0.6154,1.7691 -1.0664,2.6014 z m 21.8166,2.1333 v -14.2823 l -9.4918,14.2823 h -2.3661 v -18.0805 h 2.34 v 14.3082 l 9.5179,-14.3082 h 2.3406 v 18.0805 z m 15.7059,-15.9474 v 15.9474 h -2.3405 v -15.9474 h -6.033 v -2.1331 h 14.3804 l -0.676,2.1331 z m 23.8709,15.9474 h -12.9243 v -18.0805 h 13.0025 l -0.6764,2.1331 h -9.9858 v 5.3073 h 8.9458 v 2.1331 h -8.9458 v 6.3737 h 10.584 z m 5.6939,0.3121 c -0.3812,0 -0.7801,-0.104 -1.1962,-0.3121 v -1.8209 c 0.5029,0 0.9147,-0.0607 1.2353,-0.1823 0.3206,-0.1213 0.5763,-0.3467 0.7671,-0.6764 0.1908,-0.3293 0.3382,-0.7803 0.4419,-1.3527 0.104,-0.5723 0.1908,-1.3008 0.2602,-2.1852 l 0.9624,-11.863 h 9.9859 v 18.0805 h -2.3406 v -15.9474 h -5.5131 l -0.858,9.7299 c -0.0522,0.5548 -0.1432,1.2096 -0.2733,1.9641 -0.1301,0.7543 -0.3336,1.4698 -0.6111,2.1462 -0.2773,0.6763 -0.6458,1.2486 -1.105,1.7169 -0.4598,0.4683 -1.0448,0.7024 -1.7555,0.7024 z m 32.1148,-5.6843 c 0,1.73 -0.4983,3.0569 -1.4952,3.9847 -0.9973,0.9235 -2.4058,1.3875 -4.2259,1.3875 h -7.6193 v -18.0805 h 2.34 v 7.4404 h 5.4094 c 1.8201,0 3.2071,0.4465 4.1607,1.3354 0.9536,0.8932 1.4303,2.2025 1.4303,3.9325 z m -2.3144,-0.013 c 0,-1.0925 -0.2688,-1.8859 -0.8062,-2.3803 -0.5375,-0.4943 -1.3958,-0.7415 -2.5744,-0.7415 h -5.3054 v 6.3737 h 5.1752 c 2.3406,0 3.5108,-1.084 3.5108,-3.2519 z m 29.2544,-10.5622 v 15.9474 h -2.3406 v -15.9474 h -6.033 v -2.1331 h 14.3804 l -0.676,2.1331 z m 23.8708,15.9474 h -12.9243 v -18.0805 h 13.0025 l -0.6763,2.1331 h -9.9859 v 5.3073 h 8.9458 v 2.1331 h -8.9458 v 6.3737 h 10.584 z m 16.668,0 v -15.9474 h -8.9459 v 15.9474 h -2.34 v -18.0805 h 13.6262 v 18.0805 z m 8.9705,0.3121 c -0.3813,0 -0.7801,-0.104 -1.1962,-0.3121 v -1.8209 c 0.5029,0 0.9144,-0.0607 1.2353,-0.1823 0.3206,-0.1213 0.5763,-0.3467 0.7671,-0.6764 0.1907,-0.3293 0.3379,-0.7803 0.4419,-1.3527 0.104,-0.5723 0.1908,-1.3008 0.2602,-2.1852 l 0.9624,-11.863 h 9.9859 v 18.0805 h -2.3406 v -15.9474 h -5.5131 l -0.858,9.7299 c -0.0522,0.5548 -0.1432,1.2096 -0.2733,1.9641 -0.1301,0.7543 -0.3336,1.4698 -0.6112,2.1462 -0.2775,0.6763 -0.6457,1.2486 -1.1049,1.7169 -0.4598,0.4683 -1.0448,0.7024 -1.7555,0.7024 z m 26.7316,0 c -1.5081,0 -2.7998,-0.2426 -3.8747,-0.7282 -1.0749,-0.4859 -1.9502,-1.1492 -2.6263,-1.9902 -0.6761,-0.8413 -1.1747,-1.834 -1.4953,-2.9789 -0.3209,-1.1447 -0.4813,-2.3672 -0.4813,-3.6681 v -0.7024 c 0,-1.2314 0.195,-2.376 0.5853,-3.4339 0.3901,-1.0581 0.9491,-1.9729 1.6773,-2.7448 0.7279,-0.7716 1.6166,-1.3745 2.6654,-1.8079 1.0488,-0.4337 2.232,-0.6506 3.5496,-0.6506 1.3178,0 2.501,0.2169 3.5495,0.6506 1.0491,0.4334 1.9378,1.0363 2.6657,1.8079 0.7282,0.7719 1.2872,1.6867 1.6773,2.7448 0.3903,1.0579 0.585,2.2025 0.585,3.4339 v 0.7024 c 0,1.3009 -0.1601,2.5234 -0.481,3.6681 -0.3206,1.1449 -0.8192,2.1376 -1.4953,2.9789 -0.676,0.841 -1.5517,1.5043 -2.6263,1.9902 -1.0752,0.4856 -2.3666,0.7282 -3.8749,0.7282 z m 0,-16.5716 c -0.9706,0 -1.8289,0.1735 -2.5745,0.5204 -0.7455,0.3467 -1.3739,0.8193 -1.8853,1.4091 -0.5114,0.5897 -0.9014,1.2833 -1.1701,2.0855 -0.2688,0.7979 -0.4031,1.639 -0.4031,2.5279 v 0.5984 c 0,0.9885 0.1171,1.925 0.3509,2.8009 0.2342,0.8759 0.5942,1.6521 1.0794,2.3196 0.4853,0.6679 1.105,1.2011 1.8593,1.5914 0.754,0.39 1.6512,0.5854 2.6912,0.5854 1.0752,0 1.9984,-0.1866 2.77,-0.5596 0.771,-0.3728 1.4043,-0.8887 1.8981,-1.5392 0.4941,-0.6503 0.8541,-1.4176 1.0792,-2.3066 0.2253,-0.8844 0.3381,-1.8513 0.3381,-2.8919 v -0.5984 c 0,-0.8889 -0.1343,-1.73 -0.4031,-2.5279 -0.2687,-0.8022 -0.6587,-1.4958 -1.1701,-2.0855 -0.5114,-0.5898 -1.1444,-1.0624 -1.8984,-1.4091 -0.7543,-0.3469 -1.6081,-0.5204 -2.5616,-0.5204 z m 22.2069,16.5716 c -1.5084,0 -2.7998,-0.2426 -3.8747,-0.7282 -1.0749,-0.4859 -1.9505,-1.1492 -2.6266,-1.9902 -0.6761,-0.8413 -1.1744,-1.834 -1.4953,-2.9789 -0.3206,-1.1447 -0.481,-2.3672 -0.481,-3.6681 v -0.7024 c 0,-1.2314 0.195,-2.376 0.5851,-3.4339 0.3903,-1.0581 0.9493,-1.9729 1.6775,-2.7448 0.7279,-0.7716 1.6166,-1.3745 2.6654,-1.8079 1.0488,-0.4337 2.232,-0.6506 3.5496,-0.6506 1.3175,0 2.501,0.2169 3.5495,0.6506 1.0491,0.4334 1.9375,1.0363 2.6654,1.8079 0.7282,0.7719 1.2875,1.6867 1.6776,2.7448 0.39,1.0579 0.585,2.2025 0.585,3.4339 v 0.7024 c 0,1.3009 -0.1604,2.5234 -0.481,3.6681 -0.3209,1.1449 -0.8192,2.1376 -1.4953,2.9789 -0.676,0.841 -1.5517,1.5043 -2.6263,1.9902 -1.0752,0.4856 -2.3666,0.7282 -3.8749,0.7282 z m 0,-16.5716 c -0.9709,0 -1.829,0.1735 -2.5745,0.5204 -0.7455,0.3467 -1.3739,0.8193 -1.8856,1.4091 -0.5111,0.5897 -0.9011,1.2833 -1.1698,2.0855 -0.269,0.7979 -0.4031,1.639 -0.4031,2.5279 v 0.5984 c 0,0.9885 0.1168,1.925 0.3509,2.8009 0.2342,0.8759 0.5939,1.6521 1.0794,2.3196 0.4853,0.6679 1.105,1.2011 1.8593,1.5914 0.754,0.39 1.6512,0.5854 2.6912,0.5854 1.0752,0 1.9981,-0.1866 2.7697,-0.5596 0.7713,-0.3728 1.4043,-0.8887 1.8984,-1.5392 0.4941,-0.6503 0.8538,-1.4176 1.0791,-2.3066 0.2254,-0.8844 0.3382,-1.8513 0.3382,-2.8919 v -0.5984 c 0,-0.8889 -0.1343,-1.73 -0.4031,-2.5279 -0.2687,-0.8022 -0.6587,-1.4958 -1.1701,-2.0855 -0.5114,-0.5898 -1.1446,-1.0624 -1.8987,-1.4091 -0.754,-0.3469 -1.6078,-0.5204 -2.5613,-0.5204 z m 27.7718,10.9003 c 0,0.9539 -0.1343,1.7692 -0.4031,2.4455 -0.2687,0.6763 -0.6587,1.2314 -1.1701,1.6651 -0.5114,0.4334 -1.1268,0.75 -1.8462,0.9496 -0.7197,0.1993 -1.5214,0.299 -2.4058,0.299 h -7.6972 v -18.0805 h 11.7281 l -0.6763,2.1331 h -8.7115 v 5.2812 h 5.487 c 1.8029,0 3.2029,0.4119 4.1999,1.2356 0.9969,0.8238 1.4952,2.181 1.4952,4.0714 z m -2.2365,0 c 0,-1.1967 -0.2903,-2.0247 -0.8711,-2.4842 -0.5808,-0.4598 -1.4173,-0.6897 -2.5095,-0.6897 h -5.565 v 6.3998 h 5.4352 c 0.5026,0 0.9708,-0.0562 1.404,-0.169 0.4334,-0.1128 0.8064,-0.2993 1.1182,-0.5592 0.3121,-0.2603 0.5551,-0.5942 0.7283,-1.0018 0.1732,-0.4076 0.2599,-0.9062 0.2599,-1.4959 z m 7.6961,5.3592 v -18.0805 h 3.6669 l 5.123,12.7993 5.3048,-12.7993 h 3.2768 v 18.0805 h -2.3405 v -15.1149 l -5.2011,12.9816 h -2.2362 l -5.2532,-13.2937 v 15.427 z m 36.5876,0 h -12.9243 v -18.0805 h 13.0025 l -0.6766,2.1331 h -9.9856 v 5.3073 h 8.9456 v 2.1331 h -8.9456 v 6.3737 h 10.584 z m 7.7221,-8.507 v 8.507 h -2.3403 v -18.0805 h 2.3403 v 7.4404 h 9.5176 v -7.4404 h 2.3406 v 18.0805 h -2.3406 v -8.507 z m 20.5166,0 v 8.507 h -2.3403 v -18.0805 h 2.3403 v 7.4404 h 9.5176 v -7.4404 h 2.3406 v 18.0805 h -2.3406 v -8.507 z m 30.0342,8.507 v -14.2823 l -9.4915,14.2823 h -2.3664 v -18.0805 h 2.3403 v 14.3082 l 9.5176,-14.3082 h 2.3406 v 18.0805 z m 10.999,-18.0805 v 7.9087 h 1.8204 l 5.175,-7.9087 h 2.6784 l -5.6171,8.767 6.7096,9.3135 h -2.8086 l -6.0854,-8.4549 h -1.8723 v 8.4549 h -2.3403 v -18.0805 z m 24.2873,18.3926 c -1.5083,0 -2.7998,-0.2426 -3.875,-0.7282 -1.0746,-0.4859 -1.9502,-1.1492 -2.6263,-1.9902 -0.6761,-0.8413 -1.1744,-1.834 -1.4953,-2.9789 -0.3209,-1.1447 -0.481,-2.3672 -0.481,-3.6681 v -0.7024 c 0,-1.2314 0.1947,-2.376 0.5851,-3.4339 0.39,-1.0581 0.949,-1.9729 1.6772,-2.7448 0.728,-0.7716 1.6166,-1.3745 2.6657,-1.8079 1.0486,-0.4337 2.232,-0.6506 3.5496,-0.6506 1.3175,0 2.5007,0.2169 3.5495,0.6506 1.0488,0.4334 1.9375,1.0363 2.6654,1.8079 0.7282,0.7719 1.2872,1.6867 1.6776,2.7448 0.39,1.0579 0.585,2.2025 0.585,3.4339 v 0.7024 c 0,1.3009 -0.1604,2.5234 -0.4813,3.6681 -0.3206,1.1449 -0.8189,2.1376 -1.495,2.9789 -0.6763,0.841 -1.5517,1.5043 -2.6266,1.9902 -1.0749,0.4856 -2.3663,0.7282 -3.8746,0.7282 z m 0,-16.5716 c -0.9709,0 -1.8292,0.1735 -2.5747,0.5204 -0.7456,0.3467 -1.374,0.8193 -1.8854,1.4091 -0.5111,0.5897 -0.9014,1.2833 -1.1698,2.0855 -0.269,0.7979 -0.4034,1.639 -0.4034,2.5279 v 0.5984 c 0,0.9885 0.1171,1.925 0.3512,2.8009 0.2339,0.8759 0.5939,1.6521 1.0792,2.3196 0.4853,0.6679 1.1052,1.2011 1.8595,1.5914 0.7537,0.39 1.6509,0.5854 2.6912,0.5854 1.0749,0 1.9982,-0.1866 2.7697,-0.5596 0.7713,-0.3728 1.4043,-0.8887 1.8981,-1.5392 0.4941,-0.6503 0.8541,-1.4176 1.0795,-2.3066 0.225,-0.8844 0.3378,-1.8513 0.3378,-2.8919 v -0.5984 c 0,-0.8889 -0.1343,-1.73 -0.4028,-2.5279 -0.269,-0.8022 -0.6587,-1.4958 -1.1704,-2.0855 -0.5114,-0.5898 -1.1443,-1.0624 -1.8983,-1.4091 -0.7543,-0.3469 -1.6081,-0.5204 -2.5614,-0.5204 z m 20.9324,5.7753 c 0.4161,0 0.828,-0.0607 1.2351,-0.182 0.4076,-0.1213 0.7716,-0.2993 1.0924,-0.5335 0.3206,-0.2341 0.5763,-0.5332 0.7671,-0.8974 0.1908,-0.3643 0.286,-0.7977 0.286,-1.3008 0,-0.9885 -0.2469,-1.6606 -0.7413,-2.016 -0.4937,-0.3558 -1.1571,-0.5335 -1.9893,-0.5335 h -4.993 v 5.4632 z m -4.343,2.1334 v 6.2175 h 5.565 c 0.5032,0 0.9493,-0.0434 1.3397,-0.1301 0.39,-0.0865 0.7237,-0.2427 1.0009,-0.468 0.2775,-0.2257 0.4853,-0.5378 0.6242,-0.9366 0.1386,-0.3991 0.208,-0.902 0.208,-1.5089 0,-1.0406 -0.2948,-1.8297 -0.8841,-2.3675 -0.5896,-0.5377 -1.4043,-0.8064 -2.4443,-0.8064 z m 8.3997,-1.2487 c 0.8668,0.4334 1.5647,1.0015 2.0934,1.7039 0.5289,0.7024 0.7931,1.6172 0.7931,2.7445 0,0.9193 -0.1602,1.7042 -0.4811,2.3545 -0.3205,0.6502 -0.754,1.1837 -1.2999,1.5998 -0.5463,0.4165 -1.1789,0.7198 -1.8984,0.9105 -0.7194,0.1908 -1.4868,0.2863 -2.3014,0.2863 h -7.6454 v -18.0805 h 7.255 c 0.7456,0 1.4389,0.0868 2.0804,0.26 0.6417,0.1734 1.1965,0.451 1.6645,0.8325 0.468,0.3815 0.8365,0.8671 1.1052,1.457 0.2687,0.5896 0.4031,1.3008 0.4031,2.1331 0,1.5089 -0.5893,2.7229 -1.7685,3.6422 z"
         style="fill:#e7441c;fill-rule:evenodd"
         id="path449" />
      <path
         d="m 48.72322,371.94811 v -48.8415 h 21.1853 v -12.2102 h -54.7503 v 12.2102 h 21.3596 v 48.8415 z m 79.0742,0 v -12.2102 h -39.5805 v -12.1232 h 36.5293 v -12.2106 h -36.5293 v -12.2975 h 39.5805 v -12.2102 h -51.7859 v 61.0517 z m 20.052,-30.4387 v -18.4028 h 30.4265 v 18.4028 z m 0,30.4387 v -18.2285 h 36.5292 l 6.0154,-6.1049 v -30.5261 l -6.0154,-6.1922 h -48.7349 v 61.0517 z m 62.5969,0 v -41.1664 l 16.3029,23.4615 h 10.2005 l 15.9542,-23.4615 v 41.1664 h 12.2054 v -61.0517 h -11.7697 l -21.621,29.5664 -21.2723,-29.5664 h -12.2057 v 61.0517 z m 75.5867,-12.2102 v -36.6313 h 30.4265 v 36.6313 z m 36.5292,12.2102 6.0154,-6.018 v -48.8415 l -6.0154,-6.1922 h -42.7192 l -6.0154,6.1922 v 48.8415 l 6.0154,6.018 z m 26.9393,-12.2102 v -12.1232 h 30.4266 v 12.1232 z m 36.529,12.2102 6.0157,-6.018 v -24.4207 l -6.0157,-6.1053 h -36.529 v -12.2975 h 39.5805 v -12.2102 h -51.7862 v 61.0517 z m 25.196,0 v -36.631 l 12.1184,-12.2105 h 18.3081 v 48.8415 h 12.1184 v -61.0517 h -36.5295 l -18.2211,18.3154 v 42.7363 z m 63.4686,-12.2102 v -36.6313 h 30.4265 v 36.6313 z m 36.5292,12.2102 6.0154,-6.018 v -48.8415 l -6.0154,-6.1922 h -42.7192 l -6.0157,6.1922 v 48.8415 l 6.0157,6.018 z m 26.9394,0 v -24.3334 h 18.2208 l 12.2057,12.1232 v 12.2102 h 12.1181 v -18.2285 l -12.1181,-12.2102 12.1181,-12.2102 v -18.4028 h -12.1181 v 12.2975 l -12.2057,12.2102 h -18.2208 v -24.5077 h -12.2057 v 61.0517 z"
         style="fill:#868789;fill-rule:evenodd"
         id="path451" />
    </g>
  </g>
</svg>
