<svg width="266" height="51" viewBox="0 0 266 51" fill="none" xmlns="http://www.w3.org/2000/svg">
<path d="M148.83 17.9769V24.09H144.059V32.9614C144.059 34.1542 144.283 34.8997 144.73 35.1234C145.178 35.347 145.625 35.4961 146.147 35.4961C146.892 35.4961 147.787 35.347 148.83 35.1234V41.8329C146.967 42.2056 145.178 42.3547 143.388 42.3547C140.481 42.3547 138.393 41.7583 136.977 40.491C135.635 39.2236 134.964 37.2853 134.964 34.527V31.6941V24.09H131.386V17.9769H134.964L135.113 10.1491L144.059 10V17.9769H148.83Z" fill="#575656"/>
<path d="M167.841 33.3327L176.637 33.9291C176.116 36.3147 174.774 38.3275 172.686 39.9676C170.524 41.6077 167.691 42.4278 164.038 42.4278C160.013 42.4278 156.733 41.235 154.347 38.9239C151.961 36.6129 150.769 33.7054 150.769 30.2016C150.769 26.6232 151.961 23.5666 154.347 21.1064C156.733 18.6463 159.864 17.3789 163.889 17.3789C167.766 17.3789 170.823 18.5717 173.208 20.8828C175.594 23.1939 176.787 26.3995 176.787 30.4252C176.787 30.7234 176.787 31.2453 176.787 31.7671H160.535C160.535 33.2581 160.833 34.3764 161.355 35.1219C161.877 35.8674 162.846 36.2401 164.262 36.2401C166.275 36.3147 167.468 35.3455 167.841 33.3327ZM167.244 27.145C167.244 25.5049 166.871 24.4612 166.275 23.8648C165.604 23.343 164.859 23.0448 163.889 23.0448C161.653 23.0448 160.535 24.3867 160.535 27.145H167.244Z" fill="#575656"/>
<path d="M189.386 41.9812H180.365V17.9761H188.193V22.9709C189.087 19.3925 191.175 17.5288 194.455 17.5288C194.753 17.5288 195.275 17.5288 195.797 17.6033V25.9529C195.126 25.8038 194.53 25.7293 194.008 25.7293C190.877 25.7293 189.311 27.444 189.311 30.9478V41.9812H189.386Z" fill="#575656"/>
<path d="M235.16 41.9812H225.99V26.9967C225.99 25.953 225.841 25.282 225.543 24.9093C225.244 24.5365 224.723 24.3128 223.977 24.3128C222.188 24.3128 221.368 25.5802 221.368 28.1895V42.0558H212.347V27.0712C212.347 25.1329 211.602 24.1638 210.111 24.1638C208.62 24.1638 207.8 25.1329 207.8 27.0712V42.0558H198.705V18.0506H207.129V21.2563C208.62 18.7961 210.856 17.5288 213.689 17.5288C216.82 17.5288 219.057 18.7961 220.473 21.2563C222.039 18.7961 224.424 17.5288 227.63 17.5288C229.196 17.5288 230.537 17.827 231.73 18.4979C232.923 19.1689 233.743 19.9889 234.265 20.9581C234.787 22.0018 235.085 23.5674 235.085 25.6548V41.9812H235.16Z" fill="#575656"/>
<path d="M251.859 42.4293C247.908 42.4293 244.702 41.1619 242.391 38.7018C240.08 36.2416 238.887 33.3342 238.887 29.9794C238.887 26.401 240.08 23.419 242.54 21.0334C245 18.6478 248.206 17.455 252.082 17.455C256.033 17.455 259.239 18.6478 261.625 21.0334C264.01 23.419 265.203 26.3264 265.203 29.9049C265.203 33.4833 264.01 36.4653 261.55 38.9254C259.165 41.2365 255.884 42.4293 251.859 42.4293ZM252.008 36.7635C253.499 36.7635 254.393 36.018 254.692 34.4524C254.99 32.9614 255.139 31.3213 255.139 29.6812C255.139 27.4447 254.915 25.8046 254.468 24.8354C254.021 23.8663 253.201 23.3444 252.008 23.3444C250.89 23.3444 250.144 23.8663 249.622 24.91C249.1 25.9537 248.877 27.5938 248.877 29.9794C248.877 32.7378 249.1 34.527 249.622 35.4216C250.219 36.3162 250.964 36.7635 252.008 36.7635Z" fill="#575656"/>
<path d="M126.465 10V31.3213C126.465 35.347 125.272 38.2545 122.887 40.0437C120.501 41.8329 117.37 42.7275 113.494 42.7275C109.468 42.7275 106.188 41.9074 103.728 40.1928C101.267 38.4781 100 35.7198 100 31.9177V10H110.064V30.7249C110.064 32.2905 110.362 33.4087 111.033 34.0797C111.704 34.8252 112.748 35.1234 114.165 35.1234C115.357 35.1234 116.326 34.8997 117.072 34.3779C117.817 33.856 118.265 33.2596 118.414 32.6632C118.563 31.9923 118.638 30.7249 118.638 28.8612V10H126.465Z" fill="#EC6602" stroke="#EC6602" stroke-width="0.216" stroke-miterlimit="5"/>
<path fill-rule="evenodd" clip-rule="evenodd" d="M69.9905 50.0015V1.72132L79.5133 0V50.0015H69.9905ZM73.7663 42.1723H76.7925V39.4237H73.7663V42.1723ZM73.7663 36.2032H76.7925V33.4546H73.7663V36.2032ZM73.7663 30.3451H76.7925V27.5966H73.7663V30.3451ZM73.7663 24.4316H76.7925V21.683H73.7663V24.4316ZM73.7663 18.2404H76.7925V15.4918H73.7663V18.2404ZM73.7663 12.2436H76.7925V9.495H73.7663V12.2436Z" fill="#575656"/>
<path fill-rule="evenodd" clip-rule="evenodd" d="M87.6216 46.3371L108 50.0019H87.6216V46.3371Z" fill="#575656"/>
<path fill-rule="evenodd" clip-rule="evenodd" d="M20.2949 46.3371L0 50.0019H20.2949V46.3371Z" fill="#575656"/>
<path fill-rule="evenodd" clip-rule="evenodd" d="M24.3483 7.5516V49.9738H20.2949V2.2766L24.3483 7.5516ZM21.8774 39.6181L23.7931 39.4793V37.3415L21.8774 37.5081V39.6181ZM21.8774 34.8151L23.7931 34.6763V32.5385L21.8774 32.7051V34.8151ZM21.8774 29.3457L23.7931 29.2069V27.0691L21.8774 27.208V29.3457ZM21.8774 24.2095L23.7931 24.0707V21.9329L21.8774 22.0995V24.2095ZM21.8774 19.1566L23.7931 19.0178V16.88L21.8774 17.0466V19.1566ZM21.8774 14.0204L23.7931 13.8816V11.7438L21.8774 11.9104V14.0204Z" fill="#EC6602"/>
<path fill-rule="evenodd" clip-rule="evenodd" d="M44.2533 12.6595V50.001H38.0066V11.4379L44.2533 12.6595Z" fill="#EC6602"/>
<path fill-rule="evenodd" clip-rule="evenodd" d="M87.62 1.80461L79.5132 0V50.0015H87.62V1.80461Z" fill="#EC6602"/>
<path fill-rule="evenodd" clip-rule="evenodd" d="M24.3518 7.55185H38.0113V49.974H24.3518V7.55185ZM33.4859 46.3371H35.7625V11.4387H33.4859V46.3371ZM30.1543 46.3371H32.4309V11.4387H30.1543V46.3371ZM26.6006 46.3371H28.8772V11.4387H26.6006V46.3371Z" fill="#575656"/>
<path fill-rule="evenodd" clip-rule="evenodd" d="M54.6108 50.0015V14.0204L69.9917 18.0461V50.0015H54.6108ZM68.5202 47.1974V44.671L56.8874 44.1157V46.8642L68.5202 47.1974ZM68.5202 41.3394V38.8129L56.8874 37.4525V40.1178L68.5202 41.3394ZM68.4924 35.759V33.2603L56.8597 31.3724V34.0377L68.4924 35.759ZM68.5202 29.8732V27.2357L56.8597 24.848V27.5133L68.5202 29.8732ZM68.5202 23.682V21.0445L56.8597 18.0461V20.5447V20.9612L68.5202 23.682Z" fill="#EC6602"/>
<path fill-rule="evenodd" clip-rule="evenodd" d="M44.2549 50.0011V27.3741L46.6425 26.6522V17.0739L54.6106 13.9922H54.6383V49.9733H44.2549V50.0011ZM49.5021 46.4751L51.9175 46.3086V43.3101L49.5299 43.6711L49.5021 46.4751ZM49.5021 40.4228L51.9175 39.8953V37.0634L49.5299 37.6464L49.5021 40.4228ZM49.5021 34.2871L51.9175 33.7596V30.9277L49.5299 31.5108L49.5021 34.2871ZM49.5021 28.2625L51.9175 27.735V24.8754L49.5299 25.4584L49.5021 28.2625ZM49.5021 22.2379L51.9175 21.7104V18.8508L49.5299 19.4338L49.5021 22.2379Z" fill="#575656"/>
</svg>
