<svg width="290" height="180" viewBox="0 0 290 180" fill="none" xmlns="http://www.w3.org/2000/svg">
<path fill-rule="evenodd" clip-rule="evenodd" d="M187.941 134.265V4.62211L213.512 0V134.265H187.941ZM198.08 113.242H206.206V105.861H198.08V113.242ZM198.08 97.2133H206.206V89.8329H198.08V97.2133ZM198.08 81.4833H206.206V74.1028H198.08V81.4833ZM198.08 65.6041H206.206V58.2236H198.08V65.6041ZM198.08 48.9794H206.206V41.599H198.08V48.9794ZM198.08 32.8766H206.206V25.4961H198.08V32.8766Z" fill="#575656"/>
<path fill-rule="evenodd" clip-rule="evenodd" d="M235.28 124.425L290 134.266H235.28V124.425Z" fill="#575656"/>
<path fill-rule="evenodd" clip-rule="evenodd" d="M54.4961 124.425L0 134.266H54.4961V124.425Z" fill="#575656"/>
<path fill-rule="evenodd" clip-rule="evenodd" d="M65.3805 20.2777V134.19H54.4962V6.11316L65.3805 20.2777ZM58.7456 106.383L63.8895 106.01V100.27L58.7456 100.717V106.383ZM58.7456 93.4859L63.8895 93.1132V87.3728L58.7456 87.8201V93.4859ZM58.7456 78.7995L63.8895 78.4268V72.6864L58.7456 73.0592V78.7995ZM58.7456 65.0078L63.8895 64.635V58.8947L58.7456 59.342V65.0078ZM58.7456 51.4396L63.8895 51.0669V45.3265L58.7456 45.7738V51.4396ZM58.7456 37.6479L63.8895 37.2751V31.5348L58.7456 31.9821V37.6479Z" fill="#EC6602"/>
<path fill-rule="evenodd" clip-rule="evenodd" d="M118.833 33.9936V134.264H102.059V30.7134L118.833 33.9936Z" fill="#EC6602"/>
<path fill-rule="evenodd" clip-rule="evenodd" d="M235.28 4.84576L213.512 0V134.265H235.28V4.84576Z" fill="#EC6602"/>
<path fill-rule="evenodd" clip-rule="evenodd" d="M65.3805 20.2783H102.059V134.191H65.3805V20.2783ZM89.9075 124.425H96.0206V30.7153H89.9075V124.425V124.425ZM80.9615 124.425H87.0746V30.7153H80.9615V124.425ZM71.4191 124.425H77.5322V30.7153H71.4191V124.425Z" fill="#575656"/>
<path d="M110.558 154.841V160.954H105.787V169.825C105.787 171.018 106.01 171.763 106.458 171.987C106.905 172.211 107.352 172.36 107.874 172.36C108.62 172.36 109.514 172.211 110.558 171.987V178.697C108.694 179.069 106.905 179.219 105.116 179.219C102.208 179.219 100.121 178.622 98.7044 177.355C97.3625 176.087 96.6916 174.149 96.6916 171.391V168.558V160.954H93.1132V154.841H96.6916L96.8407 147.013L105.787 146.864V154.841H110.558Z" fill="#575656"/>
<path d="M129.568 170.196L138.365 170.793C137.843 173.178 136.501 175.191 134.414 176.831C132.252 178.471 129.419 179.292 125.766 179.292C121.74 179.292 118.46 178.099 116.075 175.788C113.689 173.477 112.496 170.569 112.496 167.065C112.496 163.487 113.689 160.43 116.075 157.97C118.46 155.51 121.591 154.243 125.617 154.243C129.494 154.243 132.55 155.435 134.936 157.747C137.321 160.058 138.514 163.263 138.514 167.289C138.514 167.587 138.514 168.109 138.514 168.631H122.262C122.262 170.122 122.56 171.24 123.082 171.986C123.604 172.731 124.573 173.104 125.99 173.104C128.003 173.178 129.195 172.209 129.568 170.196ZM128.972 164.009C128.972 162.369 128.599 161.325 128.003 160.729C127.332 160.207 126.586 159.908 125.617 159.908C123.38 159.908 122.262 161.25 122.262 164.009H128.972Z" fill="#575656"/>
<path d="M151.113 178.845H142.093V154.84H149.92V159.835C150.815 156.256 152.902 154.393 156.183 154.393C156.481 154.393 157.003 154.393 157.524 154.467V162.817C156.853 162.668 156.257 162.593 155.735 162.593C152.604 162.593 151.039 164.308 151.039 167.812V178.845H151.113Z" fill="#575656"/>
<path d="M196.887 178.845H187.717V163.86C187.717 162.817 187.568 162.146 187.27 161.773C186.972 161.4 186.45 161.177 185.704 161.177C183.915 161.177 183.095 162.444 183.095 165.053V178.92H174.075V163.935C174.075 161.997 173.329 161.028 171.838 161.028C170.347 161.028 169.527 161.997 169.527 163.935V178.92H160.432V154.914H168.856V158.12C170.347 155.66 172.584 154.393 175.416 154.393C178.548 154.393 180.784 155.66 182.201 158.12C183.766 155.66 186.152 154.393 189.357 154.393C190.923 154.393 192.265 154.691 193.458 155.362C194.65 156.033 195.47 156.853 195.992 157.822C196.514 158.866 196.812 160.431 196.812 162.519V178.845H196.887Z" fill="#575656"/>
<path d="M213.586 179.293C209.635 179.293 206.429 178.026 204.118 175.566C201.807 173.105 200.615 170.198 200.615 166.843C200.615 163.265 201.807 160.283 204.267 157.897C206.728 155.512 209.933 154.319 213.81 154.319C217.761 154.319 220.967 155.512 223.352 157.897C225.738 160.283 226.931 163.19 226.931 166.769C226.931 170.347 225.738 173.329 223.278 175.789C220.892 178.1 217.612 179.293 213.586 179.293ZM213.735 173.627C215.226 173.627 216.121 172.882 216.419 171.316C216.717 169.825 216.866 168.185 216.866 166.545C216.866 164.308 216.643 162.668 216.195 161.699C215.748 160.73 214.928 160.208 213.735 160.208C212.617 160.208 211.872 160.73 211.35 161.774C210.828 162.817 210.604 164.458 210.604 166.843C210.604 169.602 210.828 171.391 211.35 172.285C211.946 173.18 212.692 173.627 213.735 173.627Z" fill="#575656"/>
<path d="M88.1927 146.864V168.185C88.1927 172.211 86.9999 175.118 84.6143 176.907C82.2287 178.697 79.0976 179.591 75.221 179.591C71.1953 179.591 67.9151 178.771 65.4549 177.057C62.9948 175.342 61.7274 172.584 61.7274 168.781V146.864H71.7917V167.589C71.7917 169.154 72.0899 170.272 72.7608 170.943C73.4318 171.689 74.4755 171.987 75.8919 171.987C77.0847 171.987 78.0539 171.763 78.7994 171.242C79.5449 170.72 79.9922 170.123 80.1413 169.527C80.2904 168.856 80.3649 167.589 80.3649 165.725V146.864H88.1927Z" fill="#EC6602" stroke="#EC6602" stroke-width="0.216" stroke-miterlimit="5"/>
<path fill-rule="evenodd" clip-rule="evenodd" d="M146.64 134.265V37.6477L187.941 48.4575V134.265H146.64ZM183.99 126.735V119.951L152.753 118.46V125.84L183.99 126.735ZM183.99 111.005V104.221L152.753 100.568V107.725L183.99 111.005ZM183.915 96.0204V89.3109L152.679 84.2415V91.3983L183.915 96.0204ZM183.99 80.2158V73.1336L152.679 66.7222V73.8791L183.99 80.2158ZM183.99 63.5911V56.5089L152.679 48.4575V55.167V56.2852L183.99 63.5911Z" fill="#EC6602"/>
<path fill-rule="evenodd" clip-rule="evenodd" d="M118.833 134.264V73.5052L125.244 71.5669V45.8471L146.64 37.572H146.715V134.189H118.833V134.264ZM132.923 124.796L139.409 124.348V116.297L132.997 117.266L132.923 124.796ZM132.923 108.544L139.409 107.127V99.5232L132.997 101.089L132.923 108.544ZM132.923 92.0682L139.409 90.6517V83.0476L132.997 84.6131L132.923 92.0682ZM132.923 75.8908L139.409 74.4743V66.7957L132.997 68.3612L132.923 75.8908ZM132.923 59.7134L139.409 58.297V50.6183L132.997 52.1838L132.923 59.7134Z" fill="#575656"/>
</svg>
