<svg width="290" height="135" viewBox="0 0 290 135" fill="none" xmlns="http://www.w3.org/2000/svg">
<path fill-rule="evenodd" clip-rule="evenodd" d="M187.941 134.265V4.62211L213.512 0V134.265H187.941ZM198.08 113.242H206.206V105.861H198.08V113.242ZM198.08 97.2133H206.206V89.8329H198.08V97.2133ZM198.08 81.4833H206.206V74.1028H198.08V81.4833ZM198.08 65.6041H206.206V58.2236H198.08V65.6041ZM198.08 48.9794H206.206V41.599H198.08V48.9794ZM198.08 32.8766H206.206V25.4961H198.08V32.8766Z" fill="#575656"/>
<path fill-rule="evenodd" clip-rule="evenodd" d="M235.28 124.425L290 134.266H235.28V124.425Z" fill="#575656"/>
<path fill-rule="evenodd" clip-rule="evenodd" d="M54.4961 124.425L0 134.266H54.4961V124.425Z" fill="#575656"/>
<path fill-rule="evenodd" clip-rule="evenodd" d="M65.3806 20.2777V134.19H54.4963V6.11316L65.3806 20.2777ZM58.7457 106.383L63.8896 106.01V100.27L58.7457 100.717V106.383ZM58.7457 93.4859L63.8896 93.1132V87.3728L58.7457 87.8201V93.4859ZM58.7457 78.7995L63.8896 78.4268V72.6864L58.7457 73.0592V78.7995ZM58.7457 65.0078L63.8896 64.635V58.8947L58.7457 59.342V65.0078ZM58.7457 51.4396L63.8896 51.0669V45.3265L58.7457 45.7738V51.4396ZM58.7457 37.6479L63.8896 37.2751V31.5348L58.7457 31.9821V37.6479Z" fill="#EC6602"/>
<path fill-rule="evenodd" clip-rule="evenodd" d="M118.833 33.9935V134.263H102.059V30.7133L118.833 33.9935Z" fill="#EC6602"/>
<path fill-rule="evenodd" clip-rule="evenodd" d="M235.28 4.84576L213.512 0V134.265H235.28V4.84576Z" fill="#EC6602"/>
<path fill-rule="evenodd" clip-rule="evenodd" d="M65.3804 20.2784H102.059V134.191H65.3804V20.2784ZM89.9074 124.425H96.0205V30.7154H89.9074V124.425V124.425ZM80.9613 124.425H87.0745V30.7154H80.9613V124.425ZM71.4189 124.425H77.532V30.7154H71.4189V124.425Z" fill="#575656"/>
<path fill-rule="evenodd" clip-rule="evenodd" d="M146.64 134.265V37.6477L187.941 48.4575V134.265H146.64ZM183.99 126.735V119.951L152.753 118.46V125.84L183.99 126.735ZM183.99 111.005V104.221L152.753 100.568V107.725L183.99 111.005ZM183.915 96.0204V89.3109L152.679 84.2415V91.3983L183.915 96.0204ZM183.99 80.2158V73.1335L152.679 66.7222V73.879L183.99 80.2158ZM183.99 63.5911V56.5089L152.679 48.4575V55.167V56.2852L183.99 63.5911Z" fill="#EC6602"/>
<path fill-rule="evenodd" clip-rule="evenodd" d="M118.833 134.264V73.5052L125.244 71.5669V45.8471L146.64 37.5721H146.715V134.189H118.833V134.264ZM132.923 124.796L139.409 124.348V116.297L132.997 117.266L132.923 124.796ZM132.923 108.544L139.409 107.127V99.5232L132.997 101.089L132.923 108.544ZM132.923 92.0682L139.409 90.6518V83.0477L132.997 84.6132L132.923 92.0682ZM132.923 75.8908L139.409 74.4744V66.7957L132.997 68.3613L132.923 75.8908ZM132.923 59.7135L139.409 58.297V50.6184L132.997 52.1839L132.923 59.7135Z" fill="#575656"/>
</svg>
